<svg id="7d7db746-f52e-4559-bca4-6c2106bcd288" data-name="Capa 3" xmlns="http://www.w3.org/2000/svg" viewBox="0 0 135.68 122.67"><defs><style>.eb1eca40-16f5-456c-a391-a8ad6e01498b{fill:#56428e;}.\31 6981d14-aa6b-43bd-b690-504083cc6d61{fill:#fff;}</style></defs><title>twittch@vector</title><rect class="eb1eca40-16f5-456c-a391-a8ad6e01498b" x="23.34" y="18.02" width="0.99" height="0.99"/><polygon class="eb1eca40-16f5-456c-a391-a8ad6e01498b" points="43.5 12.12 43 11.63 42.01 12.61 43.5 12.61 43.5 12.12"/><rect class="eb1eca40-16f5-456c-a391-a8ad6e01498b" x="121.43" y="91.24" width="1.54" height="1.54"/><rect class="eb1eca40-16f5-456c-a391-a8ad6e01498b" x="24.82" y="16.04" width="1.48" height="0.99"/><rect class="eb1eca40-16f5-456c-a391-a8ad6e01498b" x="78.41" y="12.86" width="0.99" height="0.49"/><path class="eb1eca40-16f5-456c-a391-a8ad6e01498b" d="M48,20.76l-1.48,2v0.49h1v0.49h-1L46,23.23v0.49l-0.49.49,2,2H48l0.49-.49V26.2l1.48-.49h0.49l-0.49.49,1,1.48h0.49l0.49-.49-0.49-3.46,1-2-2-2q0-4-1.48-4v3q-1,0-1-2.47H47.46L47,16.8H46.47V16.31L47,15.81V15.32l-0.49-.49L45,16.31v1Q47,20.76,48,20.76Zm0.49,2.47v1H48v-1h0.49Z" transform="translate(-0.99 -3.69)"/><rect class="eb1eca40-16f5-456c-a391-a8ad6e01498b" x="79.4" y="10.88" width="0.49" height="0.99"/><polygon class="eb1eca40-16f5-456c-a391-a8ad6e01498b" points="120.66 76.7 119.11 78.24 120.66 78.24 120.66 76.7"/><polygon class="eb1eca40-16f5-456c-a391-a8ad6e01498b" points="122.2 74.39 122.2 72.84 119.88 72.84 121.43 74.39 122.2 74.39"/><polygon class="eb1eca40-16f5-456c-a391-a8ad6e01498b" points="127.59 71.3 127.59 68.99 126.05 68.99 125.28 69.76 126.82 71.3 127.59 71.3"/><path class="eb1eca40-16f5-456c-a391-a8ad6e01498b" d="M42,21.75v0.49l1.48-.49H44l0.49,0.49q2-.74,2-1.48,0-1.24-2-1.48L39,17.3v0.49l-0.49.49v2h3Z" transform="translate(-0.99 -3.69)"/><rect class="eb1eca40-16f5-456c-a391-a8ad6e01498b" x="19.38" y="17.53" width="0.49" height="0.99"/><polygon class="eb1eca40-16f5-456c-a391-a8ad6e01498b" points="107.6 11.38 107.6 10.88 105.13 10.39 105.13 10.88 106.61 12.37 107.6 11.38"/><polygon class="eb1eca40-16f5-456c-a391-a8ad6e01498b" points="119.11 88.93 119.11 78.24 117.57 88.93 119.11 88.93"/><polygon class="eb1eca40-16f5-456c-a391-a8ad6e01498b" points="106.11 15.83 106.11 17.81 108.09 17.81 108.09 16.82 107.1 15.83 106.11 15.83"/><polygon class="eb1eca40-16f5-456c-a391-a8ad6e01498b" points="40.65 16.04 40.16 14.56 38.67 14.56 38.67 15.55 39.17 16.04 38.67 16.04 38.67 16.54 39.17 17.03 40.65 16.04"/><path class="eb1eca40-16f5-456c-a391-a8ad6e01498b" d="M93.75,10.13l0.49-.49q0,0.62,3,1.48l0.49-.49q-0.37-2.47-1.48-2.47h-1v1H94.74l-1-1-2.47.49V9.14l1,1h1.48Z" transform="translate(-0.99 -3.69)"/><rect class="eb1eca40-16f5-456c-a391-a8ad6e01498b" x="75.94" y="11.87" width="0.99" height="0.99"/><rect class="eb1eca40-16f5-456c-a391-a8ad6e01498b" x="105.62" y="7.42" width="0.99" height="0.99"/><polygon class="eb1eca40-16f5-456c-a391-a8ad6e01498b" points="94.74 2.97 95.73 3.96 96.72 3.96 96.72 2.47 94.74 2.47 94.74 2.97"/><path class="eb1eca40-16f5-456c-a391-a8ad6e01498b" d="M93.26,7.16h0.49l0.49-.49L92.76,5.18h-1v1Q93.26,6.17,93.26,7.16Z" transform="translate(-0.99 -3.69)"/><polygon class="eb1eca40-16f5-456c-a391-a8ad6e01498b" points="101.66 5.94 103.15 4.45 102.16 3.46 101.17 3.46 97.7 4.95 98.69 5.94 101.66 5.94"/><path class="eb1eca40-16f5-456c-a391-a8ad6e01498b" d="M32.74,21.72l2.47-4-0.49-.49a3.83,3.83,0,0,0-2.47,3l-1.48-.49H30.27v1l1,1h1.48Z" transform="translate(-0.99 -3.69)"/><polygon class="eb1eca40-16f5-456c-a391-a8ad6e01498b" points="102.16 1.48 102.16 2.47 102.65 2.47 102.65 0.49 102.16 0 100.67 0.49 99.19 0 98.69 0.49 99.68 1.98 102.16 1.48"/><path class="eb1eca40-16f5-456c-a391-a8ad6e01498b" d="M103.52,117.11L102,115.57l-0.77.77h-0.77c-0.56-.17-1-0.33-1.46-0.5-0.37.73-.74,1.43-1.12,2.08C98.68,117.38,100.56,117.11,103.52,117.11Z" transform="translate(-0.99 -3.69)"/><rect class="eb1eca40-16f5-456c-a391-a8ad6e01498b" x="67.83" y="121.13" width="0.77" height="1.54"/><polygon class="eb1eca40-16f5-456c-a391-a8ad6e01498b" points="70 14.84 70.5 14.35 70.5 13.85 70 13.36 70 12.86 70.99 12.86 70.99 14.35 71.98 14.35 72.48 13.85 71.49 12.86 71.98 11.38 74.45 11.38 75.44 10.39 75.44 9.89 72.97 9.4 71.98 10.39 68.52 12.86 68.52 13.36 69.51 14.84 70 14.84"/><path class="eb1eca40-16f5-456c-a391-a8ad6e01498b" d="M99,115.84c0.5-1,1-2,1.47-3.16,0-.18-0.07-0.36-0.09-0.53L96.58,114C96.58,114.63,97.4,115.24,99,115.84Z" transform="translate(-0.99 -3.69)"/><polygon class="eb1eca40-16f5-456c-a391-a8ad6e01498b" points="1.21 92.63 2.2 91.64 1.21 91.64 1.21 92.63"/><path class="eb1eca40-16f5-456c-a391-a8ad6e01498b" d="M5.17,101.27l-0.49.49,1,1H6.16l1-1v-0.49l-0.49-.49h1a2.68,2.68,0,0,1,2-2V98.3l-0.49-.49,1-1.48-1-1V94.84l0.49-.49v-1l-0.49-.49-4.45.49v1l0.49,0.49h-1v0.49l1.48,1.48q-0.25,2-1.48,2v1l1,1v0.49Z" transform="translate(-0.99 -3.69)"/><rect class="eb1eca40-16f5-456c-a391-a8ad6e01498b" x="15.83" y="108.46" width="1.48" height="0.99"/><rect class="eb1eca40-16f5-456c-a391-a8ad6e01498b" x="63.2" y="120.36" width="0.77" height="1.54"/><rect class="eb1eca40-16f5-456c-a391-a8ad6e01498b" x="134.14" y="114.19" width="1.54" height="0.77"/><path class="eb1eca40-16f5-456c-a391-a8ad6e01498b" d="M120.88,102.65l0.77-.77v-0.77l-0.77.77-2.72-1.36V80l0.4-.4-0.4-.4v-15h0.4V62.66l-0.4-.4V59.58h0.4l-0.4-.4V52.64h0.4V51.09h-0.4V27.61l-1.53-1.53H101.42c-0.09,0-.15-0.09-0.24-0.13l-0.13.13H99l-0.64.21L97.22,26a8.52,8.52,0,0,1-1.37,1.19l-1.4.47-1.53-1.53H71.49l-1,1L70,26.94a3,3,0,0,0-.65.06l-0.16-.16H68.43l-0.77.76H67.53a2.65,2.65,0,0,0-.63-0.32V26.08H57.14l6.44-1.61L61.6,23H61.1l-0.49.49V23l-0.49-.49q-5.57.87-7.42,2.47c0,0.41.53,0.79,1.55,1.12H27.12l-1.53,1.53V43.17l-0.1.1h0.1v0.41l0.77,0.77-0.77.77v9.18l1.53,1.53-1.53,4.59v5.36l1.53,2.3-1.53,2.3V94.93a13.25,13.25,0,0,0-1.5.41H23.75l-0.49-3H21.77l-0.49.49,1,1-1,1.48,0.24,0.35c-0.45-.09-0.91-0.17-1.47-0.23l-0.49.49v0.49L20,96.94h-1q0,0.74,2,1.48h0.49L22,97.93,22.17,98a6.81,6.81,0,0,1-1.89,3.24l-2.47-.49v1l3.46,0.49v1l-2.47.49-1.48-1.48H16.82v1a1.31,1.31,0,0,1,1.48,1.48H17.81l0.49,1.48v0.49l-3.46-3.46a1.31,1.31,0,0,1-1.48,1.48q0-1.48-1-1.48h-4v1h1l2,1v0.49l-3.46.49H3.47L1,106.71v1l3,0.49v1H3.47L3,108.69H2.48L2,109.18v0.49l0.49,0.49L4,109.68H5l-0.49.49q0,1.48,2.47,1.48v0.49h-1v1H6.44q1.48,0,4-2v0.49q4.45,0,4.45-2,1,0,1,1.48,4.45,0.25,4.45,2,2.47,0,2.47-2h1l1.48,1h0.49a2,2,0,0,1,1-1.67l2,0.65v0.77l-0.77.77h2.31L28.73,115,28,114.22Q21,115.76,21,118.08v0.77h5.4l0.77,0.77-1.54,3.86L27.19,125h2.31l0.77-.77v-0.77l-0.77-.77v-2.31l6.94,0.77,2.31-1.54-0.59-1.76a3.72,3.72,0,0,0,2.12-.56h0l1.54-1.54q6.94,1.73,6.94,3.86l3.08-.77h0.77l0.77,0.77,4.63-.77,3.08,0.77,3.08-.77h4.63l7.71,0.77v0.77H75V120.2H74.22a1.42,1.42,0,0,0-.73.19H72.68v2.07s0,0,0,.06H71.14v1.54h0.77l1.64-1.64,1.45-.48c3.06,0.41,5.62.82,7.71,1.22v0.9h1.54l-0.73-.73A17.89,17.89,0,0,1,88.88,125q4.82,0,9-7.1a0.9,0.9,0,0,0-.5.74,9.21,9.21,0,0,0-6.17-2.31v-0.77h3.08V114H89.64l-2.31-1.54v-0.77l0.77-.77V109.4H85.79l0.77-.77-0.6-1.8,4.6,0.11-0.15.15L92,108.63H93.5L95,107.09l0,0,3.31,0.08a12.86,12.86,0,0,1,2,5l2.4-1.2,2.17,0.54,13.24,9.77V103.79l5.8,3.48h0.77v-1.54L124,105Q120.88,105,120.88,102.65ZM8.41,110.17q0-1.48-2-1.48v-1H8.91l0.49,2.47h-1Zm9.4-2H16.33V107.7h1.48v0.49Zm2.47-2h-1v-1h1v1Zm2,2.41v-0.43h1ZM47,55.15v0.77L43.95,62h-2.3V61.27q2.3,0,2.3-1.53V58.21q-5.36-1.91-5.36-3.83l-3.06,2.3H32.47l-0.77-2.3V53.62l0.77-.77A30.56,30.56,0,0,0,36,52.67h0.88l0.2-.16c3-.53,4.59-1.68,4.59-3.48h1.53l0.07,0.14-2.93,2.51v0.49c2-.32,3.26-0.78,3.73-1.4l1.42,2.85H43.95v1.53H47Zm1.53,19.13-0.77-.77-3.06.77H43.95L44.71,72V71.22l-3.06,2.3q0-3.83-4.59-3.83V68.92h2.3V67.39l-2.3.77-2.3-.77H34l-0.76.77H32.47V66.63h0.77q2.68-3.06,5.36-3.06h6.12l-1.53,3.06,4.59,0.76L47,68.16Zm48.2-31.37H97.5L99,44.44h-2.3V42.91Zm-6.12-4.59V37.56h3.06q5,0,5.36,2.3Zm-3.83,4.59V42.15h1.53v0.76H86.79ZM87.56,46V47.5H86.79V46h0.77ZM83,39.09V37.56h6.12v0.77ZM50.84,78.87V77.34H51.6v1.53H50.84Zm13-36V42.15h1.53v0.76H63.84ZM64.61,75v1.53h-2.3V75.81ZM60.78,48.27V49H59.25V48.27h1.53Zm0,2.3v0.77L60,52.09l-2.3-.76V50.56h3.06Zm-3.06-6.12H56.19V43.68h1.53v0.77Zm10.71-5.36V38.32l0.77-.77-0.77-.77h2.3l6.12,4.59v0.77H75.32l-0.77-.77q-1.53,0-1.53,2.3l-5.36-1.53,1.53-1.53V39.85Zm22.19,7.65h0.76v1.53H90.62V46.74ZM82.2,38.32H80.67V37.56H82.2v0.77ZM77.61,62.8v0.77H76.08V62.8h1.53Zm-3.83-4.59v1.53H72.26Zm-2.3,4.59v1.53l-0.77.77-2.3-2.3h3.06ZM91.38,44.44V43.68h0.77q3.44,1.53,3.83,3.06h-2.3A2,2,0,0,0,91.38,44.44Zm5.83-14.06,1.06,1.06H97.5l-1.16-1.16A5.84,5.84,0,0,0,97.21,30.38ZM52.37,66.63v0.76H51.6q-2.3,0-2.3-1.53ZM25.47,105h0.12v0.12ZM39.36,73.44v0.07l-0.77.77V75l0.77,0.76,2.3-.76h1.53l-2.3,2.3H37.83l-2.3-1.53H34l-3.83.77V75q4.59-1.72,4.59-3.06l2.59,0.43v1h2Zm-4.59,7.72,0.77-.77V79.64l-0.77-.77h3.06v0.77l-0.77.77v0.77l0.77,0.76H34.77V81.17Zm10.71-3.83V75.81h0.77v1.53H45.48ZM33.24,62.8V61.27l1.53-1.53h4.59l0.76,0.77Q40.12,61.85,33.24,62.8Zm4.61-22a1.22,1.22,0,0,1,0-.18h0.7v0.77l-0.13,0Zm0,2.12h0.77v0.77l-1.53,1.53H35.53Zm-6.41,1.84,1.23-.49-0.95.95H30.94V44Zm-5.83,56.77v1.41l-1.1.37a1,1,0,0,0-.24-0.05h-1l-0.49.49v-1A15.59,15.59,0,0,0,25.59,101.53ZM49.3,43.68H46.24l1.53-1.53Zm2.56,64.37H51.09l-0.77-.77H48l-1.54,1.54-3.86-.77-5.4.77-0.34-1.68H52.64v0.14Zm11.56,9.83-0.77.77H61.88l0.77-3.08h0.77l0.77,2.31H63.43ZM75,114v-1.54H74.22v2.31H71.14v-3.86l4.63,1.54v-0.77L78.85,114H75Zm6.17,0.77v1.54H79.62Zm-0.77,2.31h0.77l1.54,1.54H80.39v-1.54ZM85,119.42H83.47v-0.77H85v0.77Zm14.65-11.57-0.72-.72H99l1,0.72H99.67Z" transform="translate(-0.99 -3.69)"/><rect class="eb1eca40-16f5-456c-a391-a8ad6e01498b" x="126.43" y="89.51" width="1.54" height="0.77"/><rect class="eb1eca40-16f5-456c-a391-a8ad6e01498b" x="122.97" y="74.39" width="1.54" height="0.77"/><polygon class="eb1eca40-16f5-456c-a391-a8ad6e01498b" points="124.89 97.22 124.89 98.77 125.66 99.54 126.43 99.54 127.2 98.77 125.66 97.22 124.89 97.22"/><polygon class="eb1eca40-16f5-456c-a391-a8ad6e01498b" points="77.85 121.13 77.85 119.58 76.31 119.58 77.85 121.13"/><polygon class="eb1eca40-16f5-456c-a391-a8ad6e01498b" points="67.53 15.83 67.53 14.35 66.54 14.35 66.05 14.84 67.03 15.83 67.53 15.83"/><polygon class="eb1eca40-16f5-456c-a391-a8ad6e01498b" points="11.6 87.68 10.61 87.68 9.62 88.67 11.6 88.67 11.6 87.68"/><polygon class="eb1eca40-16f5-456c-a391-a8ad6e01498b" points="60.6 11.87 61.1 11.87 61.59 12.37 62.09 12.37 62.09 10.88 61.1 10.88 61.59 10.39 61.59 9.89 61.1 9.4 57.64 10.88 58.63 12.37 60.6 11.87"/><rect class="eb1eca40-16f5-456c-a391-a8ad6e01498b" x="66.54" y="10.39" width="1.48" height="0.99"/><rect class="eb1eca40-16f5-456c-a391-a8ad6e01498b" x="66.05" y="2.97" width="0.99" height="0.99"/><path class="eb1eca40-16f5-456c-a391-a8ad6e01498b" d="M66.55,25l1,1q1.24,0,3.46-2l0.49,1.48,1-1,2,0.49H75l0.49-.49,1.48,1h0.49l1.48-1,1,1L80.4,25l2,1,8.41-2-1-1.48V22l2.47-.49q4.95,0,5.44,2V24l-3.46-1h-2v1h3l3.46,2V24h0.49l1.48,1h2l0.49-.49L103.65,25h0.49l0.49-.49V25l2.47-2V22.49l-1-1h-1V23l-1-1q-1.24,0-1.48,2h-2.47V23.48l0.49-.49V22.49L100.18,22l-2,1-2.47-2.47,0.49-2,1.48,1H98.2L98.7,19v0.49L99.19,20l3-.49,3,1h0.49V19l-4.95-1h-3l-0.49-1.48,1-2.47,4,1,0.49-.49V14.08l-0.49-.49V13.09l0.49-.49h-0.49l-0.49-.49h-3l-3-.49-2.47.49H88.31l0.49-.49-1-1h-2l-2,2v0.49q0,1.48,2,1.48v0.49H83.36l-0.49-.49v0.49l-0.49.49v1.48h2l2.47,0.49v1H84.35v1h3.46V20l-1.48.49L86.83,23l-3.46,1.48L82.87,23l-1.48,1h-1l-2.47-1.48V22l0.49-.49V21h-1l-3,2H73L71,21.5H70.5Q68,23.23,68,24.47H67.53q-1,0-1-2H65.06L64.57,25l0.49,0.49ZM91.28,14.58h1.48v0.49H91.28V14.58Zm-0.49,1.48a10.51,10.51,0,0,0,4.95-1.48h0.49l-0.49,1.48q-1.48,0-1.48,1l-3.46-.49V16.06Zm-5.44-3H84.85v-1h1.48Zm2,7.91h1V21.5h-1V21Z" transform="translate(-0.99 -3.69)"/><path class="eb1eca40-16f5-456c-a391-a8ad6e01498b" d="M60.11,19.52h1l0.49-2-1.48-1-2.47.49v1A3.38,3.38,0,0,1,60.11,19.52Z" transform="translate(-0.99 -3.69)"/><rect class="eb1eca40-16f5-456c-a391-a8ad6e01498b" x="6.43" y="97.08" width="0.99" height="0.99"/><polygon class="eb1eca40-16f5-456c-a391-a8ad6e01498b" points="7.18 93.24 6.19 94.23 6.19 95.22 6.68 95.22 8.17 94.23 7.18 93.24"/><polygon class="eb1eca40-16f5-456c-a391-a8ad6e01498b" points="21.77 87.68 20.78 77.55 19.79 87.68 19.79 88.17 21.27 88.17 21.77 87.68"/><polygon class="eb1eca40-16f5-456c-a391-a8ad6e01498b" points="15.83 92.63 16.82 91.64 16.82 91.14 15.83 90.15 14.35 90.15 13.36 91.14 14.84 92.63 15.83 92.63"/><path class="16981d14-aa6b-43bd-b690-504083cc6d61" d="M100.94,50.71c0-4.26,0-8.52,0-13.08H98.57q-23.94,0-47.88,0c-1.82,0-4.09-.52-5.32.36s-1.5,3.18-2,4.91c-0.74,2.43-1.85,4.89-1.89,7.36-0.19,13.16-.1,26.32-0.09,39.48,0,0.59.05,1.18,0.09,2H56.29v7.43c2.42,0,4.67-.08,6.9,0a4.43,4.43,0,0,0,3.86-1.55A45.46,45.46,0,0,1,71.72,93a5.55,5.55,0,0,1,3-1.27c2.67-.17,5.36,0,8-0.09a3.91,3.91,0,0,0,2.38-1q7.45-7.28,14.72-14.74a4.3,4.3,0,0,0,1-2.71C101,65.7,100.94,58.21,100.94,50.71ZM95.4,72.05a3.07,3.07,0,0,1-.87,1.89C92.08,76.48,89.6,79,87,81.4a4.24,4.24,0,0,1-2.57,1c-3.89.1-7.8,0-11.69,0.1a4.48,4.48,0,0,0-2.67,1.1c-2.09,1.92-4,4-6.36,6.42V82.47h-13V43.37H95.44C95.44,53.06,95.46,62.56,95.4,72.05Z" transform="translate(-0.99 -3.69)"/><path class="16981d14-aa6b-43bd-b690-504083cc6d61" d="M65.62,71H71V54.62H65.62V71Z" transform="translate(-0.99 -3.69)"/><path class="16981d14-aa6b-43bd-b690-504083cc6d61" d="M80.65,71h5.21V54.63H80.65V71Z" transform="translate(-0.99 -3.69)"/></svg>