<svg id="eff79839-446f-473d-a215-445ee8a82d15" data-name="Capa 1" xmlns="http://www.w3.org/2000/svg" viewBox="0 0 135.68 116.49"><defs><style>.\31 a72043a-b719-44a9-b06a-1057f6419ce4{fill:#5f9bd2;}.\30 1478125-2741-44cd-8f0a-cf6d84b31ccc{fill:#fff;}</style></defs><title>twitter@vector</title><rect class="1a72043a-b719-44a9-b06a-1057f6419ce4" x="85.34" y="4.45" width="0.99" height="0.99"/><polygon class="1a72043a-b719-44a9-b06a-1057f6419ce4" points="70.61 7.17 70.09 6.68 69.05 7.67 70.61 7.67 70.61 7.17"/><rect class="1a72043a-b719-44a9-b06a-1057f6419ce4" x="121.43" y="85.06" width="1.54" height="1.54"/><rect class="1a72043a-b719-44a9-b06a-1057f6419ce4" x="86.82" y="2.47" width="1.48" height="0.99"/><rect class="1a72043a-b719-44a9-b06a-1057f6419ce4" x="78.41" y="19.29" width="0.99" height="0.49"/><path class="1a72043a-b719-44a9-b06a-1057f6419ce4" d="M75.25,21.55l-1.56,2V24h1v0.49h-1L73.17,24v0.49L72.65,25l2.08,2h0.52l0.52-.49V27l1.56-.49h0.52L77.34,27l1,1.48H78.9L79.42,28,78.9,24.52l1-2-2.08-2q0-4-1.56-4v3q-1,0-1-2.47H74.73l-0.52.49H73.69V17.09l0.52-.49V16.11l-0.52-.49-1.56,1.48v1Q74.21,21.55,75.25,21.55ZM75.77,24v1H75.25V24h0.52Z" transform="translate(-0.99 -9.43)"/><rect class="1a72043a-b719-44a9-b06a-1057f6419ce4" x="79.4" y="17.31" width="0.49" height="0.99"/><polygon class="1a72043a-b719-44a9-b06a-1057f6419ce4" points="120.66 70.52 119.11 72.06 120.66 72.06 120.66 70.52"/><polygon class="1a72043a-b719-44a9-b06a-1057f6419ce4" points="122.2 68.2 122.2 66.66 119.88 66.66 121.43 68.2 122.2 68.2"/><polygon class="1a72043a-b719-44a9-b06a-1057f6419ce4" points="127.59 65.12 127.59 62.81 126.05 62.81 125.28 63.58 126.82 65.12 127.59 65.12"/><path class="1a72043a-b719-44a9-b06a-1057f6419ce4" d="M80.4,14.37v0.49l1.48-.49h0.49l0.49,0.49q2-.74,2-1.48,0-1.24-2-1.48l-5.44-2v0.49l-0.49.49v2h3Z" transform="translate(-0.99 -9.43)"/><rect class="1a72043a-b719-44a9-b06a-1057f6419ce4" x="81.38" y="3.96" width="0.49" height="0.99"/><polygon class="1a72043a-b719-44a9-b06a-1057f6419ce4" points="107.6 17.81 107.6 17.31 105.13 16.82 105.13 17.31 106.61 18.8 107.6 17.81"/><polygon class="1a72043a-b719-44a9-b06a-1057f6419ce4" points="119.11 82.75 119.11 72.06 117.57 82.75 119.11 82.75"/><polygon class="1a72043a-b719-44a9-b06a-1057f6419ce4" points="106.11 22.26 106.11 24.24 108.09 24.24 108.09 23.25 107.1 22.26 106.11 22.26"/><polygon class="1a72043a-b719-44a9-b06a-1057f6419ce4" points="102.65 2.47 102.16 0.99 100.67 0.99 100.67 1.98 101.17 2.47 100.67 2.47 100.67 2.97 101.17 3.46 102.65 2.47"/><path class="1a72043a-b719-44a9-b06a-1057f6419ce4" d="M93.75,22.29l0.49-.49q0,0.62,3,1.48l0.49-.49q-0.37-2.47-1.48-2.47h-1v1H94.74l-1-1-2.47.49V21.3l1,1h1.48Z" transform="translate(-0.99 -9.43)"/><rect class="1a72043a-b719-44a9-b06a-1057f6419ce4" x="75.94" y="18.3" width="0.99" height="0.99"/><rect class="1a72043a-b719-44a9-b06a-1057f6419ce4" x="105.62" y="13.85" width="0.99" height="0.99"/><polygon class="1a72043a-b719-44a9-b06a-1057f6419ce4" points="94.74 9.4 95.73 10.39 96.72 10.39 96.72 8.9 94.74 8.9 94.74 9.4"/><path class="1a72043a-b719-44a9-b06a-1057f6419ce4" d="M93.26,19.32h0.49l0.49-.49-1.48-1.48h-1v1Q93.26,18.33,93.26,19.32Z" transform="translate(-0.99 -9.43)"/><polygon class="1a72043a-b719-44a9-b06a-1057f6419ce4" points="101.66 12.37 103.15 10.88 102.16 9.89 101.17 9.89 97.7 11.38 98.69 12.37 101.66 12.37"/><path class="1a72043a-b719-44a9-b06a-1057f6419ce4" d="M94.74,13.88l2.47-4-0.49-.49a3.83,3.83,0,0,0-2.47,3l-1.48-.49H92.27v1l1,1h1.48Z" transform="translate(-0.99 -9.43)"/><polygon class="1a72043a-b719-44a9-b06a-1057f6419ce4" points="102.16 7.92 102.16 8.9 102.65 8.9 102.65 6.93 102.16 6.43 100.67 6.93 99.19 6.43 98.69 6.93 99.68 8.41 102.16 7.92"/><path class="1a72043a-b719-44a9-b06a-1057f6419ce4" d="M103.52,116.66L102,115.12l-0.77.77h-0.77c-0.56-.17-1-0.33-1.46-0.5-0.37.73-.74,1.43-1.12,2.08C98.68,116.93,100.56,116.66,103.52,116.66Z" transform="translate(-0.99 -9.43)"/><rect class="1a72043a-b719-44a9-b06a-1057f6419ce4" x="67.83" y="114.94" width="0.77" height="1.54"/><polygon class="1a72043a-b719-44a9-b06a-1057f6419ce4" points="70 21.27 70.5 20.78 70.5 20.28 70 19.79 70 19.29 70.99 19.29 70.99 20.78 71.98 20.78 72.48 20.28 71.49 19.29 71.98 17.81 74.45 17.81 75.44 16.82 75.44 16.32 72.97 15.83 71.98 16.82 68.52 19.29 68.52 19.79 69.51 21.27 70 21.27"/><path class="1a72043a-b719-44a9-b06a-1057f6419ce4" d="M99,115.39c0.5-1,1-2,1.47-3.16,0-.18-0.07-0.36-0.09-0.53l-3.77,1.88C96.58,114.18,97.4,114.78,99,115.39Z" transform="translate(-0.99 -9.43)"/><polygon class="1a72043a-b719-44a9-b06a-1057f6419ce4" points="1.01 86.44 2 85.45 1.01 85.45 1.01 86.44"/><path class="1a72043a-b719-44a9-b06a-1057f6419ce4" d="M5,100.82l-0.49.49,1,1H6l1-1v-0.49l-0.49-.49h1a2.68,2.68,0,0,1,2-2V97.85l-0.49-.49,1-1.48-1-1V94.39l0.49-.49v-1l-0.49-.49-4.45.49v1L5,94.39H4v0.49l1.48,1.48q-0.25,2-1.48,2v1l1,1v0.49Z" transform="translate(-0.99 -9.43)"/><rect class="1a72043a-b719-44a9-b06a-1057f6419ce4" x="15.83" y="102.27" width="1.48" height="0.99"/><rect class="1a72043a-b719-44a9-b06a-1057f6419ce4" x="63.2" y="114.17" width="0.77" height="1.54"/><rect class="1a72043a-b719-44a9-b06a-1057f6419ce4" x="134.14" y="108" width="1.54" height="0.77"/><path class="1a72043a-b719-44a9-b06a-1057f6419ce4" d="M120.88,102.2l0.77-.77v-0.77l-0.77.77-2.72-1.36V79.58l0.4-.4-0.4-.4v-15h0.4V62.21l-0.4-.4V59.13h0.4l-0.4-.4V52.19h0.4V50.64h-0.4V27.16l-1.53-1.53H101.42c-0.09,0-.15-0.09-0.24-0.13l-0.13.13H99l-0.64.21-1.18-.34a8.52,8.52,0,0,1-1.37,1.19l-1.4.47-1.53-1.53H71.49l-1,1L70,26.49a3,3,0,0,0-.65.06L69.2,26.4H68.43l-0.76.76H67.53a2.65,2.65,0,0,0-.63-0.32V25.63H57.14L63.58,24l-2-1.48H61.1L60.61,23V22.54L60.11,22q-5.57.87-7.42,2.47c0,0.41.53,0.79,1.55,1.12H27.12l-1.53,1.53V42.72l-0.1.1h0.1v0.41L26.35,44l-0.77.77v9.18l1.53,1.53-1.53,4.59v5.36l1.53,2.3L25.59,70V94.48a13.25,13.25,0,0,0-1.5.41H23.75l-0.49-3H21.77l-0.49.49,1,1-1,1.48,0.24,0.35C21.06,95.15,20.6,95.06,20,95l-0.49.49V96L20,96.49h-1q0,0.74,2,1.48h0.49L22,97.47l0.15,0.1a6.81,6.81,0,0,1-1.89,3.24l-2.47-.49v1l3.46,0.49v1l-2.47.49-1.48-1.48H16.82v1a1.31,1.31,0,0,1,1.48,1.48H17.81l0.49,1.48v0.49l-3.46-3.46a1.31,1.31,0,0,1-1.48,1.48q0-1.48-1-1.48h-4v1h1l2,1v0.49l-3.46.49H3.47L1,106.26v1l3,0.49v1H3.47L3,108.24H2.48L2,108.73v0.49l0.49,0.49L4,109.23H5l-0.49.49q0,1.48,2.47,1.48v0.49h-1v1H6.44q1.48,0,4-2v0.49q4.45,0,4.45-2,1,0,1,1.48,4.45,0.25,4.45,2,2.47,0,2.47-2h1l1.48,1h0.49a2,2,0,0,1,1-1.67l2,0.65v0.77l-0.77.77h2.31l-1.54,2.31L28,113.77Q21,115.31,21,117.62v0.77h5.4l0.77,0.77L25.65,123l1.54,1.54h2.31l0.77-.77V123l-0.77-.77v-2.31l6.94,0.77,2.31-1.54-0.59-1.76a3.72,3.72,0,0,0,2.12-.56h0l1.54-1.54q6.94,1.73,6.94,3.86l3.08-.77h0.77l0.77,0.77L58,118.4l3.08,0.77,3.08-.77h4.63l7.71,0.77v0.77H75v-0.19H74.22a1.42,1.42,0,0,0-.73.19H72.68V122s0,0,0,.06H71.14v1.54h0.77L73.54,122l1.45-.48c3.06,0.41,5.62.82,7.71,1.22v0.9h1.54l-0.73-.73a17.89,17.89,0,0,1,5.36,1.69q4.82,0,9-7.1a0.9,0.9,0,0,0-.5.74,9.21,9.21,0,0,0-6.17-2.31v-0.77h3.08v-1.54H89.64L87.33,112v-0.77l0.77-.77v-1.54H85.79l0.77-.77-0.6-1.8,4.6,0.11-0.15.15L92,108.18H93.5L95,106.64l0,0,3.31,0.08a12.86,12.86,0,0,1,2,5l2.4-1.2,2.17,0.54,13.24,9.77V103.34l5.8,3.48h0.77v-1.54l-0.77-.77Q120.88,104.51,120.88,102.2ZM8.41,109.72q0-1.48-2-1.48v-1H8.91l0.49,2.47h-1Zm9.4-2H16.33v-0.49h1.48v0.49Zm2.47-2h-1v-1h1v1Zm2,2.41v-0.43h1ZM47,54.7v0.77l-3.06,6.12h-2.3V60.82q2.3,0,2.3-1.53V57.76q-5.36-1.91-5.36-3.83l-3.06,2.3H32.47l-0.77-2.3V53.17l0.77-.77A30.56,30.56,0,0,0,36,52.22h0.88l0.2-.16c3-.53,4.59-1.68,4.59-3.48h1.53l0.07,0.14-2.93,2.51v0.49c2-.32,3.26-0.78,3.73-1.4l1.42,2.85H43.95V54.7H47Zm1.53,19.13-0.77-.77-3.06.77H43.95l0.77-2.3V70.77l-3.06,2.3q0-3.83-4.59-3.83V68.47h2.3V66.94l-2.3.77-2.3-.77H34l-0.77.77H32.47V66.18h0.77q2.68-3.06,5.36-3.06h6.12l-1.53,3.06,4.59,0.76L47,67.71Zm48.2-31.37H97.5L99,44h-2.3V42.46Zm-6.12-4.59V37.11h3.06q5,0,5.36,2.3Zm-3.83,4.59V41.7h1.53v0.76H86.79Zm0.77,3.06v1.53H86.79V45.52h0.77ZM83,38.64V37.11h6.12v0.77ZM50.83,78.42V76.89H51.6v1.53H50.83Zm13-36V41.7h1.53v0.76H63.84Zm0.77,32.13v1.53h-2.3V75.36ZM60.78,47.82v0.77H59.25V47.82h1.53Zm0,2.3v0.77L60,51.64l-2.3-.76V50.11h3.06ZM57.72,44H56.19V43.23h1.53V44Zm10.71-5.36V37.87l0.77-.77-0.77-.77h2.3l6.12,4.59V41.7H75.32l-0.77-.77q-1.53,0-1.53,2.3L67.67,41.7l1.53-1.53V39.4Zm22.19,7.65h0.77v1.53H90.62V46.29ZM82.2,37.87H80.67V37.11H82.2v0.77ZM77.61,62.35v0.77H76.08V62.35h1.53Zm-3.83-4.59v1.53H72.26Zm-2.3,4.59v1.53l-0.77.77-2.3-2.3h3.06ZM91.38,44V43.23h0.76q3.44,1.53,3.83,3.06h-2.3A2,2,0,0,0,91.38,44Zm5.83-14.06L98.27,31H97.5l-1.16-1.16A5.85,5.85,0,0,0,97.21,29.93ZM52.37,66.18v0.76H51.6q-2.3,0-2.3-1.53Zm-26.9,38.34h0.12v0.12ZM39.36,73v0.07l-0.77.77v0.77l0.77,0.76,2.3-.76h1.53l-2.3,2.3H37.83l-2.3-1.53H34l-3.83.77V74.59q4.59-1.72,4.59-3.06L37.36,72v1h2Zm-4.59,7.72,0.77-.77V79.18l-0.77-.77h3.06v0.77l-0.77.77v0.77l0.77,0.76H34.77V80.72Zm10.71-3.83V75.36h0.77v1.53H45.48ZM33.24,62.35V60.82l1.53-1.53h4.59l0.77,0.77Q40.12,61.4,33.24,62.35Zm4.61-22a1.19,1.19,0,0,1,0-.18h0.7v0.77l-0.13,0Zm0,2.12h0.77v0.77l-1.53,1.53H35.53ZM31.42,44.3l1.23-.49-0.95.95H30.94V43.58Zm-5.83,56.77v1.41l-1.1.37a1,1,0,0,0-.24-0.05h-1l-0.49.49v-1A15.59,15.59,0,0,0,25.59,101.07ZM49.3,43.23H46.24l1.53-1.53Zm2.56,64.37H51.09l-0.77-.77H48l-1.54,1.54-3.86-.77-5.4.77-0.34-1.68H52.64v0.14Zm11.56,9.83-0.77.77H61.88l0.77-3.08h0.77l0.77,2.31H63.43ZM75,113.58V112H74.22v2.31H71.14v-3.86L75.76,112v-0.77l3.08,2.31H75Zm6.17,0.77v1.54H79.62Zm-0.77,2.31h0.77l1.54,1.54H80.39v-1.54ZM85,119H83.47V118.2H85V119Zm14.65-11.57-0.72-.72H99l1,0.72H99.67Z" transform="translate(-0.99 -9.43)"/><rect class="1a72043a-b719-44a9-b06a-1057f6419ce4" x="126.43" y="83.33" width="1.54" height="0.77"/><rect class="1a72043a-b719-44a9-b06a-1057f6419ce4" x="122.97" y="68.2" width="1.54" height="0.77"/><polygon class="1a72043a-b719-44a9-b06a-1057f6419ce4" points="124.89 91.04 124.89 92.58 125.66 93.35 126.43 93.35 127.2 92.58 125.66 91.04 124.89 91.04"/><polygon class="1a72043a-b719-44a9-b06a-1057f6419ce4" points="77.85 114.94 77.85 113.4 76.31 113.4 77.85 114.94"/><polygon class="1a72043a-b719-44a9-b06a-1057f6419ce4" points="67.53 22.26 67.53 20.78 66.54 20.78 66.05 21.27 67.03 22.26 67.53 22.26"/><polygon class="1a72043a-b719-44a9-b06a-1057f6419ce4" points="7.92 81.5 6.93 81.5 5.94 82.49 7.92 82.49 7.92 81.5"/><polygon class="1a72043a-b719-44a9-b06a-1057f6419ce4" points="60.6 18.3 61.1 18.3 61.59 18.8 62.09 18.8 62.09 17.31 61.1 17.31 61.59 16.82 61.59 16.32 61.1 15.83 57.64 17.31 58.63 18.8 60.6 18.3"/><rect class="1a72043a-b719-44a9-b06a-1057f6419ce4" x="66.54" y="16.82" width="1.48" height="0.99"/><rect class="1a72043a-b719-44a9-b06a-1057f6419ce4" x="66.05" y="9.4" width="0.99" height="0.99"/><path class="1a72043a-b719-44a9-b06a-1057f6419ce4" d="M66.55,37.13l1,1q1.24,0,3.46-2l0.49,1.48,1-1,2,0.49H75l0.49-.49,1.48,1h0.49l1.48-1,1,1,0.49-.49,2,1,8.41-2-1-1.48V34.16l2.47-.49q4.95,0,5.44,2v0.49l-3.46-1h-2v1h3l3.46,2v-2h0.49l1.48,1h2l0.49-.49,0.49,0.49h0.49l0.49-.49v0.49l2.47-2V34.66l-1-1h-1v1.48l-1-1q-1.24,0-1.48,2h-2.47V35.65l0.49-.49V34.66l-0.49-.49-2,1-2.47-2.47,0.49-2,1.48,1H98.2l0.49-.49v0.49l0.49,0.49,3-.49,3,1h0.49V31.19l-4.95-1h-3l-0.49-1.48,1-2.47,4,1,0.49-.49V26.25l-0.49-.49V25.26l0.49-.49h-0.49l-0.49-.49h-3l-3-.49-2.47.49H88.31l0.49-.49-1-1h-2l-2,2v0.49q0,1.48,2,1.48v0.49H83.36l-0.49-.49v0.49l-0.49.49v1.48h2l2.47,0.49v1H84.35v1h3.46v0.49l-1.48.49,0.49,2.47-3.46,1.48-0.49-1.48-1.48,1h-1l-2.47-1.48V34.16l0.49-.49V33.17h-1l-3,2H73l-2-1.48H70.5Q68,35.4,68,36.63H67.53q-1,0-1-2H65.06l-0.49,2.47,0.49,0.49ZM91.28,26.74h1.48v0.49H91.28V26.74Zm-0.49,1.48a10.51,10.51,0,0,0,4.95-1.48h0.49l-0.49,1.48q-1.48,0-1.48,1l-3.46-.49V28.23Zm-5.44-3H84.85v-1h1.48Zm2,7.91h1v0.49h-1V33.17Z" transform="translate(-0.99 -9.43)"/><path class="1a72043a-b719-44a9-b06a-1057f6419ce4" d="M60.11,31.69h1l0.49-2-1.48-1-2.47.49v1A3.38,3.38,0,0,1,60.11,31.69Z" transform="translate(-0.99 -9.43)"/><rect class="1a72043a-b719-44a9-b06a-1057f6419ce4" x="6.43" y="90.9" width="0.99" height="0.99"/><polygon class="1a72043a-b719-44a9-b06a-1057f6419ce4" points="7.18 87.06 6.19 88.05 6.19 89.04 6.68 89.04 8.17 88.05 7.18 87.06"/><polygon class="1a72043a-b719-44a9-b06a-1057f6419ce4" points="21.77 81.5 20.78 71.36 19.79 81.5 19.79 81.99 21.27 81.99 21.77 81.5"/><polygon class="1a72043a-b719-44a9-b06a-1057f6419ce4" points="15.83 86.44 16.82 85.45 16.82 84.96 15.83 83.97 14.35 83.97 13.36 84.96 14.84 86.44 15.83 86.44"/><path class="01478125-2741-44cd-8f0a-cf6d84b31ccc" d="M105.56,48.24a26.1,26.1,0,0,1-5.37,1.66c-0.65.12-1.3,0.19-2,.29A1.79,1.79,0,0,1,98.43,50a13.45,13.45,0,0,0,5.17-6.11c0.15-.34.27-0.69,0.4-1a0.6,0.6,0,0,0-.3.1,27.14,27.14,0,0,1-7.95,3,0.46,0.46,0,0,1-.48-0.15,13.48,13.48,0,0,0-22,4.07,12.77,12.77,0,0,0-1,6.68c0.06,0.57.16,1.13,0.24,1.75A38.48,38.48,0,0,1,44.76,44.3,13.09,13.09,0,0,0,43,51.89,13.42,13.42,0,0,0,48.9,62.24a13.48,13.48,0,0,1-6.05-1.68,13.1,13.1,0,0,0,1.77,6.84,13.46,13.46,0,0,0,9,6.53,14.41,14.41,0,0,1-6,.28c2.19,5.75,6.35,8.86,12.52,9.35a27.28,27.28,0,0,1-19.84,5.55l0.23,0.16a38,38,0,0,0,18.43,5.82,40.62,40.62,0,0,0,6.83-.23,38.36,38.36,0,0,0,7.19-1.52A35.89,35.89,0,0,0,89.3,82.64a39.5,39.5,0,0,0,8.28-15.11A35.67,35.67,0,0,0,99,60.08c0.12-1.56.1-3.13,0.12-4.69a0.52,0.52,0,0,1,.23-0.48,27.08,27.08,0,0,0,6.25-6.45l0.19-.3Z" transform="translate(-0.99 -9.43)"/></svg>