<svg id="f54b6842-7b93-486b-b9cf-b262f25a8baf" data-name="Capa 2" xmlns="http://www.w3.org/2000/svg" viewBox="0 0 135.68 128.11"><defs><style>.\37 61c8e2d-4670-4889-aede-5fb6527b3298{fill:#9e2e31;}.\39 56199aa-76e8-4d42-8581-82fbf95b8cfd{fill:#fff;}</style></defs><title>youtube@vector</title><rect class="761c8e2d-4670-4889-aede-5fb6527b3298" x="50.9" y="35.37" width="0.99" height="0.99"/><polygon class="761c8e2d-4670-4889-aede-5fb6527b3298" points="47.44 14.59 46.94 14.1 45.95 15.09 47.44 15.09 47.44 14.59"/><rect class="761c8e2d-4670-4889-aede-5fb6527b3298" x="121.43" y="96.68" width="1.54" height="1.54"/><rect class="761c8e2d-4670-4889-aede-5fb6527b3298" x="52.38" y="33.39" width="1.48" height="0.99"/><rect class="761c8e2d-4670-4889-aede-5fb6527b3298" x="78.41" y="18.3" width="0.99" height="0.49"/><path class="761c8e2d-4670-4889-aede-5fb6527b3298" d="M52.08,18.29l-1.48,2v0.49h1v0.49h-1l-0.49-.49v0.49l-0.49.49,2,2h0.49l0.49-.49v0.49l1.48-.49h0.49l-0.49.49,1,1.48h0.49L56,24.72l-0.49-3.46,1-2-2-2q0-4-1.48-4v3q-1,0-1-2.47H51.58l-0.49.49H50.59V13.84l0.49-.49V12.85l-0.49-.49-1.48,1.48v1Q51.09,18.29,52.08,18.29Zm0.49,2.47v1H52.08v-1h0.49Z" transform="translate(-1.18 1.25)"/><rect class="761c8e2d-4670-4889-aede-5fb6527b3298" x="79.4" y="16.32" width="0.49" height="0.99"/><polygon class="761c8e2d-4670-4889-aede-5fb6527b3298" points="120.66 82.14 119.11 83.68 120.66 83.68 120.66 82.14"/><polygon class="761c8e2d-4670-4889-aede-5fb6527b3298" points="122.2 79.83 122.2 78.29 119.88 78.29 121.43 79.83 122.2 79.83"/><polygon class="761c8e2d-4670-4889-aede-5fb6527b3298" points="127.59 76.75 127.59 74.43 126.05 74.43 125.28 75.2 126.82 76.75 127.59 76.75"/><path class="761c8e2d-4670-4889-aede-5fb6527b3298" d="M46.14,19.28v0.49l1.48-.49h0.49l0.49,0.49q2-.74,2-1.48,0-1.24-2-1.48l-5.44-2v0.49l-0.49.49v2h3Z" transform="translate(-1.18 1.25)"/><rect class="761c8e2d-4670-4889-aede-5fb6527b3298" x="46.94" y="34.88" width="0.49" height="0.99"/><polygon class="761c8e2d-4670-4889-aede-5fb6527b3298" points="107.6 16.82 107.6 16.32 105.13 15.83 105.13 16.32 106.61 17.81 107.6 16.82"/><polygon class="761c8e2d-4670-4889-aede-5fb6527b3298" points="119.11 94.37 119.11 83.68 117.57 94.37 119.11 94.37"/><polygon class="761c8e2d-4670-4889-aede-5fb6527b3298" points="106.11 21.27 106.11 23.25 108.09 23.25 108.09 22.26 107.1 21.27 106.11 21.27"/><polygon class="761c8e2d-4670-4889-aede-5fb6527b3298" points="102.65 1.48 102.16 0 100.67 0 100.67 0.99 101.17 1.48 100.67 1.48 100.67 1.98 101.17 2.47 102.65 1.48"/><path class="761c8e2d-4670-4889-aede-5fb6527b3298" d="M93.94,10.62l0.49-.49q0,0.62,3,1.48l0.49-.49q-0.37-2.47-1.48-2.47h-1v1H94.92l-1-1-2.47.49V9.63l1,1h1.48Z" transform="translate(-1.18 1.25)"/><rect class="761c8e2d-4670-4889-aede-5fb6527b3298" x="75.94" y="17.31" width="0.99" height="0.99"/><rect class="761c8e2d-4670-4889-aede-5fb6527b3298" x="105.62" y="12.86" width="0.99" height="0.99"/><polygon class="761c8e2d-4670-4889-aede-5fb6527b3298" points="94.74 8.41 95.73 9.4 96.72 9.4 96.72 7.92 94.74 7.92 94.74 8.41"/><path class="761c8e2d-4670-4889-aede-5fb6527b3298" d="M93.44,7.65h0.49l0.49-.49L92.95,5.67H92v1Q93.44,6.66,93.44,7.65Z" transform="translate(-1.18 1.25)"/><polygon class="761c8e2d-4670-4889-aede-5fb6527b3298" points="101.66 11.38 103.15 9.89 102.16 8.9 101.17 8.9 97.7 10.39 98.69 11.38 101.66 11.38"/><path class="761c8e2d-4670-4889-aede-5fb6527b3298" d="M60.49,34.12l2.47-4-0.49-.49a3.83,3.83,0,0,0-2.47,3l-1.48-.49H58v1l1,1h1.48Z" transform="translate(-1.18 1.25)"/><polygon class="761c8e2d-4670-4889-aede-5fb6527b3298" points="102.16 6.93 102.16 7.92 102.65 7.92 102.65 5.94 102.16 5.44 100.67 5.94 99.19 5.44 98.69 5.94 99.68 7.42 102.16 6.93"/><path class="761c8e2d-4670-4889-aede-5fb6527b3298" d="M103.7,117.61l-1.54-1.54-0.77.77h-0.77c-0.56-.17-1-0.33-1.46-0.5-0.37.73-.74,1.43-1.12,2.08C98.87,117.88,100.74,117.61,103.7,117.61Z" transform="translate(-1.18 1.25)"/><rect class="761c8e2d-4670-4889-aede-5fb6527b3298" x="67.83" y="126.57" width="0.77" height="1.54"/><polygon class="761c8e2d-4670-4889-aede-5fb6527b3298" points="70 20.28 70.5 19.79 70.5 19.29 70 18.8 70 18.3 70.99 18.3 70.99 19.79 71.98 19.79 72.48 19.29 71.49 18.3 71.98 16.82 74.45 16.82 75.44 15.83 75.44 15.34 72.97 14.84 71.98 15.83 68.52 18.3 68.52 18.8 69.51 20.28 70 20.28"/><path class="761c8e2d-4670-4889-aede-5fb6527b3298" d="M99.16,116.34c0.5-1,1-2,1.47-3.16,0-.18-0.07-0.36-0.09-0.53l-3.77,1.88C96.76,115.13,97.58,115.73,99.16,116.34Z" transform="translate(-1.18 1.25)"/><polygon class="761c8e2d-4670-4889-aede-5fb6527b3298" points="2.97 95.35 3.96 94.36 2.97 94.36 2.97 95.35"/><path class="761c8e2d-4670-4889-aede-5fb6527b3298" d="M7.11,99l-0.49.49,1,1H8.1l1-1V99L8.6,98.55h1a2.68,2.68,0,0,1,2-2V96.07l-0.49-.49,1-1.48-1-1V92.61l0.49-.49v-1l-0.49-.49-4.45.49v1l0.49,0.49h-1v0.49l1.48,1.48q-0.25,2-1.48,2v1l1,1V99Z" transform="translate(-1.18 1.25)"/><rect class="761c8e2d-4670-4889-aede-5fb6527b3298" x="15.83" y="113.9" width="1.48" height="0.99"/><rect class="761c8e2d-4670-4889-aede-5fb6527b3298" x="63.2" y="125.8" width="0.77" height="1.54"/><rect class="761c8e2d-4670-4889-aede-5fb6527b3298" x="134.14" y="119.63" width="1.54" height="0.77"/><path class="761c8e2d-4670-4889-aede-5fb6527b3298" d="M121.06,103.14l0.77-.77V101.6l-0.77.77L118.34,101V80.52l0.4-.4-0.4-.4v-15h0.4V63.16l-0.4-.4V60.07h0.4l-0.4-.4V53.13h0.4V51.59h-0.4V28.11l-1.53-1.53H101.6c-0.09,0-.15-0.09-0.24-0.13l-0.13.13h-2l-0.64.21-1.18-.34A8.51,8.51,0,0,1,96,27.64l-1.4.47L93.1,26.58H71.67l-1,1-0.52-.1a3,3,0,0,0-.65.06l-0.16-.16H68.61l-0.77.76H67.72a2.66,2.66,0,0,0-.63-0.32V26.58H57.32L63.76,25l-2-1.48H61.29L60.79,24V23.48L60.3,23q-5.57.87-7.42,2.47c0,0.41.53,0.79,1.55,1.12H27.3l-1.53,1.53V43.66l-0.1.1h0.1v0.41l0.76,0.77-0.76.77v9.18l1.53,1.53L25.77,61v5.36l1.53,2.3L25.77,71V95.42a13.25,13.25,0,0,0-1.51.41H23.93l-0.49-3H22l-0.49.49,1,1-1,1.48,0.24,0.35c-0.45-.09-0.91-0.17-1.47-0.23l-0.49.49v0.49l0.49,0.49h-1q0,0.74,2,1.48h0.49l0.49-.49,0.15,0.1a6.81,6.81,0,0,1-1.89,3.24L18,101.27v1l3.46,0.49v1l-2.47.49-1.48-1.48H17v1a1.31,1.31,0,0,1,1.48,1.48H18l0.49,1.48v0.49L15,103.74a1.31,1.31,0,0,1-1.48,1.48q0-1.48-1-1.48h-4v1h1l2,1v0.49l-3.46.49H3.65l-2.47.49v1l3,0.49v1H3.65l-0.49-.49H2.66l-0.49.49v0.49l0.49,0.49,1.48-.49h1l-0.49.49q0,1.48,2.47,1.48v0.49h-1v1H6.62q1.48,0,4-2v0.49q4.45,0,4.45-2,1,0,1,1.48,4.45,0.25,4.45,2,2.47,0,2.47-2h1l1.48,1h0.49A2,2,0,0,1,27,111l2,0.65v0.77l-0.77.77h2.31l-1.54,2.31-0.77-.77q-6.94,1.54-6.94,3.86v0.77h5.4l0.77,0.77L25.83,124l1.54,1.54h2.31l0.77-.77V124l-0.77-.77v-2.31l6.94,0.77,2.31-1.54-0.59-1.76a3.72,3.72,0,0,0,2.12-.56h0L42,116.26Q49,118,49,120.11l3.08-.77h0.77l0.77,0.77,4.63-.77,3.08,0.77,3.08-.77H69l7.71,0.77v0.77H75.18v-0.19H74.4a1.42,1.42,0,0,0-.73.19H72.87v2.07s0,0,0,.06H71.32v1.54h0.77l1.64-1.64,1.45-.48c3.06,0.41,5.62.82,7.71,1.22v0.9h1.54l-0.73-.73a17.89,17.89,0,0,1,5.36,1.69q4.82,0,9-7.1a0.9,0.9,0,0,0-.5.74,9.21,9.21,0,0,0-6.17-2.31v-0.77h3.08v-1.54H89.83L87.51,113v-0.77l0.77-.77V109.9H86l0.77-.77-0.6-1.8,4.6,0.11-0.15.15,1.54,1.54h1.54l1.54-1.54,0,0,3.31,0.08a12.87,12.87,0,0,1,2,5l2.4-1.2L105.1,112l13.24,9.77V104.29l5.8,3.48h0.77v-1.54l-0.77-.77Q121.06,105.46,121.06,103.14ZM8.6,110.67q0-1.48-2-1.48v-1H9.09l0.49,2.47h-1Zm9.4-2H16.51v-0.49H18v0.49Zm2.47-2h-1v-1h1v1Zm2,2.41v-0.43h1ZM47.19,55.65v0.77l-3.06,6.12h-2.3V61.77q2.3,0,2.3-1.53V58.71q-5.36-1.91-5.36-3.83l-3.06,2.3H32.66l-0.76-2.3V54.12l0.76-.77a30.57,30.57,0,0,0,3.51-.19H37l0.2-.16c3-.53,4.59-1.68,4.59-3.48h1.53l0.07,0.14-2.93,2.51v0.49c2-.32,3.26-0.78,3.73-1.4l1.42,2.85H44.13v1.53h3.06Zm1.53,19.13L48,74l-3.06.77H44.13l0.76-2.3V71.72L41.84,74q0-3.83-4.59-3.83V69.42h2.3V67.89l-2.3.77L35,67.89H34.19l-0.77.77H32.66V67.13h0.77q2.68-3.06,5.36-3.06H44.9l-1.53,3.06L48,67.89l-0.76.77Zm48.2-31.37h0.77l1.53,1.53h-2.3V43.41ZM90.8,38.82V38.05h3.06q5,0,5.36,2.3ZM87,43.41V42.64h1.53v0.76H87Zm0.76,3.06V48H87V46.47h0.76Zm-4.59-6.89V38.05h6.12v0.77ZM51,79.37V77.84h0.77v1.53H51Zm13-36V42.64h1.53v0.76H64Zm0.77,32.13v1.53h-2.3V76.31ZM61,48.76v0.77H59.43V48.76H61Zm0,2.3v0.77l-0.77.76-2.3-.76V51.06H61ZM57.9,44.94H56.37V44.17H57.9v0.77Zm10.71-5.36V38.82l0.76-.77-0.76-.77h2.3L77,41.88v0.77H75.5l-0.76-.77q-1.53,0-1.53,2.3l-5.36-1.53,1.53-1.53V40.35ZM90.8,47.23h0.77v1.53H90.8V47.23Zm-8.42-8.42H80.86V38.05h1.53v0.77ZM77.8,63.3v0.77H76.26V63.3H77.8ZM74,58.71v1.53H72.44Zm-2.3,4.59v1.53l-0.77.77-2.3-2.3h3.06ZM91.57,44.94V44.17h0.77q3.44,1.53,3.83,3.06h-2.3A2,2,0,0,0,91.57,44.94Zm5.83-14.06,1.06,1.06H97.69l-1.16-1.16A5.84,5.84,0,0,0,97.39,30.87ZM52.55,67.13v0.76H51.78q-2.3,0-2.3-1.53Zm-26.9,38.34h0.12v0.12ZM39.54,73.94V74l-0.77.77v0.77l0.77,0.76,2.3-.76h1.53l-2.3,2.3H38l-2.3-1.53H34.19l-3.83.77V75.54Q35,73.82,35,72.48l2.59,0.43v1h2ZM35,81.66l0.76-.77V80.13L35,79.37H38v0.77l-0.77.77v0.77L38,82.43H35V81.66Zm10.71-3.83V76.31h0.77v1.53H45.66ZM33.42,63.3V61.77L35,60.24h4.59L40.31,61Q40.31,62.34,33.42,63.3Zm4.62-22a1.22,1.22,0,0,1,0-.18h0.7v0.77l-0.13,0Zm0,2.12h0.76v0.77L37.25,45.7H35.72ZM31.6,45.25l1.23-.49-0.95.95H31.13V44.53ZM25.77,102v1.41l-1.1.37a1,1,0,0,0-.24-0.05h-1l-0.49.49v-1A15.59,15.59,0,0,0,25.77,102ZM49.49,44.17H46.43L48,42.64ZM52,108.55H51.28l-0.77-.77H48.19l-1.54,1.54-3.86-.77-5.4.77-0.34-1.68H52.82v0.14Zm11.56,9.83-0.77.77H62.07l0.77-3.08h0.77l0.77,2.31H63.61Zm11.57-3.86V113H74.4v2.31H71.32v-3.86L75.95,113v-0.77L79,114.52H75.18Zm6.17,0.77v1.54H79.8Zm-0.77,2.31h0.77l1.54,1.54H80.57v-1.54Zm4.63,2.31H83.66v-0.77H85.2v0.77Zm14.65-11.57-0.72-.72h0.09l1,0.72H99.85Z" transform="translate(-1.18 1.25)"/><rect class="761c8e2d-4670-4889-aede-5fb6527b3298" x="126.43" y="94.96" width="1.54" height="0.77"/><rect class="761c8e2d-4670-4889-aede-5fb6527b3298" x="122.97" y="79.83" width="1.54" height="0.77"/><polygon class="761c8e2d-4670-4889-aede-5fb6527b3298" points="124.89 102.67 124.89 104.21 125.66 104.98 126.43 104.98 127.2 104.21 125.66 102.67 124.89 102.67"/><polygon class="761c8e2d-4670-4889-aede-5fb6527b3298" points="77.85 126.57 77.85 125.03 76.31 125.03 77.85 126.57"/><polygon class="761c8e2d-4670-4889-aede-5fb6527b3298" points="67.53 21.27 67.53 19.79 66.54 19.79 66.05 20.28 67.03 21.27 67.53 21.27"/><polygon class="761c8e2d-4670-4889-aede-5fb6527b3298" points="7.92 93.12 6.93 93.12 5.94 94.11 7.92 94.11 7.92 93.12"/><polygon class="761c8e2d-4670-4889-aede-5fb6527b3298" points="60.6 17.31 61.1 17.31 61.59 17.81 62.09 17.81 62.09 16.32 61.1 16.32 61.59 15.83 61.59 15.34 61.1 14.84 57.64 16.32 58.63 17.81 60.6 17.31"/><rect class="761c8e2d-4670-4889-aede-5fb6527b3298" x="66.54" y="15.83" width="1.48" height="0.99"/><rect class="761c8e2d-4670-4889-aede-5fb6527b3298" x="66.05" y="8.41" width="0.99" height="0.99"/><path class="761c8e2d-4670-4889-aede-5fb6527b3298" d="M66.73,25.46l1,1q1.24,0,3.46-2L71.67,26l1-1,2,0.49h0.49L75.63,25l1.48,1h0.49l1.48-1,1,1,0.49-.49,2,1,8.41-2L90,23V22.49L92.45,22q4.95,0,5.44,2v0.49l-3.46-1h-2v1h3l3.46,2v-2h0.49l1.48,1h2l0.49-.49,0.49,0.49h0.49l0.49-.49v0.49l2.47-2V23l-1-1h-1v1.48l-1-1q-1.24,0-1.48,2h-2.47V24l0.49-.49V23l-0.49-.49-2,1L95.91,21l0.49-2,1.48,1h0.49l0.49-.49V20l0.49,0.49,3-.49,3,1h0.49V19.53l-4.95-1h-3L97.4,17.05l1-2.47,4,1,0.49-.49V14.58l-0.49-.49V13.59l0.49-.49h-0.49l-0.49-.49h-3l-3-.49-2.47.49H88.49L89,12.11l-1-1H86l-2,2v0.49q0,1.48,2,1.48v0.49H83.55l-0.49-.49v0.49l-0.49.49v1.48h2L87,18v1H84.54v1H88v0.49L86.51,21,87,23.48,83.55,25l-0.49-1.48-1.48,1h-1L78.11,23V22.49L78.6,22V21.5h-1l-3,2H73.16l-2-1.48H70.69q-2.47,1.73-2.47,3H67.72q-1,0-1-2H65.24l-0.49,2.47L65.24,26ZM91.46,15.07h1.48v0.49H91.46V15.07ZM91,16.56a10.51,10.51,0,0,0,4.95-1.48h0.49l-0.49,1.48q-1.48,0-1.48,1L91,17.05V16.56Zm-5.44-3H85v-1h1.48Zm2,7.91h1V22h-1V21.5Z" transform="translate(-1.18 1.25)"/><path class="761c8e2d-4670-4889-aede-5fb6527b3298" d="M60.3,20h1l0.49-2-1.48-1-2.47.49v1A3.38,3.38,0,0,1,60.3,20Z" transform="translate(-1.18 1.25)"/><rect class="761c8e2d-4670-4889-aede-5fb6527b3298" x="6.43" y="102.52" width="0.99" height="0.99"/><polygon class="761c8e2d-4670-4889-aede-5fb6527b3298" points="7.18 98.68 6.19 99.67 6.19 100.66 6.68 100.66 8.17 99.67 7.18 98.68"/><polygon class="761c8e2d-4670-4889-aede-5fb6527b3298" points="21.77 93.12 20.78 82.99 19.79 93.12 19.79 93.62 21.27 93.62 21.77 93.12"/><polygon class="761c8e2d-4670-4889-aede-5fb6527b3298" points="15.83 98.07 16.82 97.08 16.82 96.58 15.83 95.59 14.35 95.59 13.36 96.58 14.84 98.07 15.83 98.07"/><polygon class="956199aa-76e8-4d42-8581-82fbf95b8cfd" points="94.01 66.85 56.45 88.53 56.45 45.16 94.01 66.85"/></svg>