<svg id="62be5262-6a2f-49a7-b191-562b9a7e52be" data-name="Capa 2" xmlns="http://www.w3.org/2000/svg" viewBox="0 0 135.68 117.23"><defs><style>.\32 bb6a5d8-d01a-437f-936f-ccd1e2b3322d{fill:#46578e;}.\33 f092d00-cef2-49c8-badf-cacf185b10d5{fill:#fff;}</style></defs><title>facebook@vector</title><rect class="2bb6a5d8-d01a-437f-936f-ccd1e2b3322d" x="85.34" y="4.45" width="0.99" height="0.99"/><polygon class="2bb6a5d8-d01a-437f-936f-ccd1e2b3322d" points="73.01 6.18 72.51 5.69 71.53 6.68 73.01 6.68 73.01 6.18"/><rect class="2bb6a5d8-d01a-437f-936f-ccd1e2b3322d" x="121.43" y="85.8" width="1.54" height="1.54"/><rect class="2bb6a5d8-d01a-437f-936f-ccd1e2b3322d" x="86.82" y="2.47" width="1.48" height="0.99"/><rect class="2bb6a5d8-d01a-437f-936f-ccd1e2b3322d" x="78.41" y="7.42" width="0.99" height="0.49"/><path class="2bb6a5d8-d01a-437f-936f-ccd1e2b3322d" d="M77.58,20l-1.48,2v0.49h1V23h-1l-0.49-.49V23l-0.49.49,2,2h0.49L78.07,25v0.49L79.56,25h0.49l-0.49.49,1,1.48H81l0.49-.49L81,23l1-2-2-2q0-4-1.48-4v3q-1,0-1-2.47H77.08l-0.49.49H76.09V15.59l0.49-.49V14.6l-0.49-.49-1.48,1.48v1Q76.59,20,77.58,20Zm0.49,2.47v1H77.58v-1h0.49Z" transform="translate(-1.11 -8.91)"/><rect class="2bb6a5d8-d01a-437f-936f-ccd1e2b3322d" x="79.4" y="5.44" width="0.49" height="0.99"/><polygon class="2bb6a5d8-d01a-437f-936f-ccd1e2b3322d" points="120.66 71.26 119.11 72.8 120.66 72.8 120.66 71.26"/><polygon class="2bb6a5d8-d01a-437f-936f-ccd1e2b3322d" points="122.2 68.94 122.2 67.4 119.88 67.4 121.43 68.94 122.2 68.94"/><polygon class="2bb6a5d8-d01a-437f-936f-ccd1e2b3322d" points="127.59 65.86 127.59 63.55 126.05 63.55 125.28 64.32 126.82 65.86 127.59 65.86"/><path class="2bb6a5d8-d01a-437f-936f-ccd1e2b3322d" d="M71.64,21v0.49L73.13,21h0.49l0.49,0.49q2-.74,2-1.48,0-1.24-2-1.48l-5.44-2v0.49l-0.49.49v2h3Z" transform="translate(-1.11 -8.91)"/><rect class="2bb6a5d8-d01a-437f-936f-ccd1e2b3322d" x="81.38" y="3.96" width="0.49" height="0.99"/><polygon class="2bb6a5d8-d01a-437f-936f-ccd1e2b3322d" points="107.6 5.94 107.6 5.44 105.13 4.95 105.13 5.44 106.61 6.92 107.6 5.94"/><polygon class="2bb6a5d8-d01a-437f-936f-ccd1e2b3322d" points="119.11 83.49 119.11 72.8 117.57 83.49 119.11 83.49"/><polygon class="2bb6a5d8-d01a-437f-936f-ccd1e2b3322d" points="106.11 10.39 106.11 12.37 108.09 12.37 108.09 11.38 107.1 10.39 106.11 10.39"/><polygon class="2bb6a5d8-d01a-437f-936f-ccd1e2b3322d" points="102.65 2.47 102.16 0.99 100.67 0.99 100.67 1.98 101.17 2.47 100.67 2.47 100.67 2.97 101.17 3.46 102.65 2.47"/><path class="2bb6a5d8-d01a-437f-936f-ccd1e2b3322d" d="M93.86,21.77l0.49-.49q0,0.62,3,1.48l0.49-.49q-0.37-2.47-1.48-2.47h-1v1H94.85l-1-1-2.47.49v0.49l1,1h1.48Z" transform="translate(-1.11 -8.91)"/><rect class="2bb6a5d8-d01a-437f-936f-ccd1e2b3322d" x="75.94" y="6.43" width="0.99" height="0.99"/><rect class="2bb6a5d8-d01a-437f-936f-ccd1e2b3322d" x="105.62" y="13.85" width="0.99" height="0.99"/><polygon class="2bb6a5d8-d01a-437f-936f-ccd1e2b3322d" points="94.74 9.4 95.73 10.39 96.72 10.39 96.72 8.9 94.74 8.9 94.74 9.4"/><path class="2bb6a5d8-d01a-437f-936f-ccd1e2b3322d" d="M93.37,18.8h0.49l0.49-.49-1.48-1.48h-1v1Q93.37,17.82,93.37,18.8Z" transform="translate(-1.11 -8.91)"/><polygon class="2bb6a5d8-d01a-437f-936f-ccd1e2b3322d" points="101.66 12.37 103.15 10.88 102.16 9.89 101.17 9.89 97.7 11.38 98.69 12.37 101.66 12.37"/><path class="2bb6a5d8-d01a-437f-936f-ccd1e2b3322d" d="M94.85,13.36l2.47-4-0.49-.49a3.83,3.83,0,0,0-2.47,3l-1.48-.49H92.38v1l1,1h1.48Z" transform="translate(-1.11 -8.91)"/><polygon class="2bb6a5d8-d01a-437f-936f-ccd1e2b3322d" points="102.16 7.92 102.16 8.9 102.65 8.9 102.65 6.93 102.16 6.43 100.67 6.93 99.19 6.43 98.69 6.93 99.68 8.41 102.16 7.92"/><path class="2bb6a5d8-d01a-437f-936f-ccd1e2b3322d" d="M103.63,116.89l-1.54-1.54-0.77.77h-0.77c-0.56-.17-1-0.33-1.46-0.5-0.37.73-.74,1.43-1.12,2.08C98.8,117.16,100.67,116.89,103.63,116.89Z" transform="translate(-1.11 -8.91)"/><rect class="2bb6a5d8-d01a-437f-936f-ccd1e2b3322d" x="67.83" y="115.69" width="0.77" height="1.54"/><polygon class="2bb6a5d8-d01a-437f-936f-ccd1e2b3322d" points="70 9.4 70.5 8.9 70.5 8.41 70 7.92 70 7.42 70.99 7.42 70.99 8.9 71.98 8.9 72.48 8.41 71.49 7.42 71.98 5.94 74.45 5.94 75.44 4.95 75.44 4.45 72.97 3.96 71.98 4.95 68.52 7.42 68.52 7.92 69.51 9.4 70 9.4"/><path class="2bb6a5d8-d01a-437f-936f-ccd1e2b3322d" d="M99.09,115.61c0.5-1,1-2,1.47-3.16,0-.18-0.07-0.36-0.09-0.53l-3.77,1.88C96.69,114.41,97.51,115,99.09,115.61Z" transform="translate(-1.11 -8.91)"/><path class="2bb6a5d8-d01a-437f-936f-ccd1e2b3322d" d="M4.15,101l-0.49.49,1,1H5.14l1-1V101l-0.49-.49h1a2.68,2.68,0,0,1,2-2V98.07l-0.49-.49,1-1.48-1-1V94.61l0.49-.49v-1l-0.49-.49-4.45.49v1l0.49,0.49h-1v0.49l1.48,1.48q-0.25,2-1.48,2v1l1,1V101Z" transform="translate(-1.11 -8.91)"/><rect class="2bb6a5d8-d01a-437f-936f-ccd1e2b3322d" x="15.83" y="103.01" width="1.48" height="0.99"/><rect class="2bb6a5d8-d01a-437f-936f-ccd1e2b3322d" x="63.2" y="114.91" width="0.77" height="1.54"/><rect class="2bb6a5d8-d01a-437f-936f-ccd1e2b3322d" x="134.14" y="108.75" width="1.54" height="0.77"/><path class="2bb6a5d8-d01a-437f-936f-ccd1e2b3322d" d="M121,102.42l0.77-.77v-0.77l-0.77.77-2.72-1.36V79.8l0.4-.4-0.4-.4V64h0.4V62.44l-0.4-.4V59.35h0.4l-0.4-.4V52.41h0.4V50.87h-0.4V27.39l-1.53-1.53H101.53c-0.09,0-.15-0.09-0.24-0.13l-0.13.13h-2l-0.64.21-1.18-.34A8.51,8.51,0,0,1,96,26.92l-1.4.47L93,25.86H71.6l-1,1-0.52-.1a3,3,0,0,0-.65.06l-0.16-.16H68.54l-0.77.76H67.65A2.66,2.66,0,0,0,67,27.06V25.86H57.25l6.44-1.61-2-1.48H61.22l-0.49.49V22.76l-0.49-.49q-5.57.87-7.42,2.47c0,0.41.53,0.79,1.55,1.12H27.23L25.7,27.39V42.94l-0.1.1h0.1v0.41l0.76,0.77L25.7,45v9.18l1.53,1.53L25.7,60.28v5.36l1.53,2.3-1.53,2.3V94.7a13.25,13.25,0,0,0-1.51.41H23.86l-0.49-3H21.88l-0.49.49,1,1-1,1.48,0.24,0.35c-0.45-.09-0.91-0.17-1.47-0.23l-0.49.49v0.49l0.49,0.49h-1q0,0.74,2,1.48h0.49l0.49-.49,0.15,0.1A6.81,6.81,0,0,1,20.4,101l-2.47-.49v1L21.39,102v1l-2.47.49L17.43,102H16.94v1a1.31,1.31,0,0,1,1.48,1.48H17.93L18.42,106v0.49L15,103a1.31,1.31,0,0,1-1.48,1.48q0-1.48-1-1.48h-4v1h1l2,1v0.49L8,106H3.58l-2.47.49v1l3,0.49v1H3.58l-0.49-.49H2.59L2.1,109v0.49l0.49,0.49,1.48-.49h1l-0.49.49q0,1.48,2.47,1.48v0.49h-1v1H6.55q1.48,0,4-2v0.49q4.45,0,4.45-2,1,0,1,1.48,4.45,0.25,4.45,2,2.47,0,2.47-2h1l1.48,1h0.49a2,2,0,0,1,1-1.67l2,0.65v0.77l-0.77.77h2.31l-1.54,2.31L28.08,114q-6.94,1.54-6.94,3.86v0.77h5.4l0.77,0.77-1.54,3.86,1.54,1.54h2.31l0.77-.77v-0.77l-0.77-.77v-2.31l6.94,0.77,2.31-1.54-0.59-1.76a3.72,3.72,0,0,0,2.12-.56h0L42,115.54q6.94,1.73,6.94,3.86l3.08-.77h0.77l0.77,0.77,4.63-.77,3.08,0.77,3.08-.77h4.63l7.71,0.77v0.77H75.1V120H74.33a1.42,1.42,0,0,0-.73.19H72.8v2.07s0,0,0,.06H71.25v1.54H72l1.64-1.64,1.45-.48c3.06,0.41,5.62.82,7.71,1.22v0.9h1.54l-0.73-.73A17.89,17.89,0,0,1,89,124.79q4.82,0,9-7.1a0.9,0.9,0,0,0-.5.74,9.21,9.21,0,0,0-6.17-2.31v-0.77h3.08V113.8H89.75l-2.31-1.54v-0.77l0.77-.77v-1.54H85.9l0.77-.77-0.6-1.8,4.6,0.11-0.15.15,1.54,1.54h1.54l1.54-1.54,0,0,3.31,0.08a12.87,12.87,0,0,1,2,5l2.4-1.2,2.17,0.54L118.27,121V103.57l5.8,3.48h0.77v-1.54l-0.77-.77Q121,104.74,121,102.42ZM8.53,109.95q0-1.48-2-1.48v-1H9l0.49,2.47h-1Zm9.4-2H16.44v-0.49h1.48V108Zm2.47-2h-1v-1h1v1Zm2,2.41V108h1ZM47.12,54.93v0.77l-3.06,6.12h-2.3V61q2.3,0,2.3-1.53V58q-5.36-1.91-5.36-3.83l-3.06,2.3H32.59l-0.76-2.3V53.4l0.76-.77a30.56,30.56,0,0,0,3.51-.19H37l0.2-.16c3-.53,4.59-1.68,4.59-3.48H43.3l0.07,0.14-2.93,2.51v0.49c2-.32,3.26-0.78,3.73-1.4l1.42,2.85H44.06v1.53h3.06Zm1.53,19.13-0.77-.77-3.06.77H44.06l0.76-2.3V71l-3.06,2.3q0-3.83-4.59-3.83V68.7h2.3V67.17l-2.3.77-2.3-.77H34.12l-0.77.77H32.59V66.4h0.77q2.68-3.06,5.36-3.06h6.12L43.3,66.4l4.59,0.76-0.76.77Zm48.2-31.37h0.77l1.53,1.53h-2.3V42.69ZM90.73,38.1V37.33h3.06q5,0,5.36,2.3Zm-3.83,4.59V41.92h1.53v0.76H86.91Zm0.76,3.06v1.53H86.91V45.75h0.76Zm-4.59-6.89V37.33H89.2V38.1ZM50.95,78.65V77.12h0.77v1.53H50.95Zm13-36V41.92h1.53v0.76H64Zm0.77,32.13v1.53h-2.3V75.58ZM60.89,48v0.77H59.36V48h1.53Zm0,2.3V51.1l-0.77.76-2.3-.76V50.34h3.06Zm-3.06-6.12H56.3V43.45h1.53v0.77Zm10.71-5.36V38.1l0.76-.77-0.76-.77h2.3L77,41.16v0.77H75.43l-0.76-.77q-1.53,0-1.53,2.3l-5.36-1.53,1.53-1.53V39.63Zm22.19,7.65H91.5V48H90.73V46.51ZM82.31,38.1H80.78V37.33h1.53V38.1ZM77.72,62.58v0.77H76.19V62.58h1.53ZM73.9,58v1.53H72.37Zm-2.3,4.59v1.53l-0.77.77-2.3-2.3H71.6ZM91.5,44.22V43.45h0.77Q95.7,45,96.09,46.51h-2.3A2,2,0,0,0,91.5,44.22Zm5.83-14.06,1.06,1.06H97.62l-1.16-1.16A5.84,5.84,0,0,0,97.32,30.15ZM52.48,66.4v0.76H51.71q-2.3,0-2.3-1.53Zm-26.9,38.34H25.7v0.12ZM39.47,73.22v0.07l-0.77.77v0.77l0.77,0.76,2.3-.76H43.3L41,77.12H37.94l-2.3-1.53H34.12l-3.83.77V74.82q4.59-1.72,4.59-3.06l2.59,0.43v1h2Zm-4.59,7.72,0.76-.77V79.41l-0.76-.77h3.06v0.77l-0.77.77v0.77l0.77,0.76H34.88V80.94Zm10.71-3.83V75.58h0.77v1.53H45.59ZM33.35,62.58V61l1.53-1.53h4.59l0.77,0.77Q40.24,61.62,33.35,62.58Zm4.62-22a1.22,1.22,0,0,1,0-.18h0.7v0.77l-0.13,0Zm0,2.12h0.76v0.77L37.18,45H35.65Zm-6.41,1.84L32.77,44,31.82,45H31.06V43.81ZM25.7,101.3v1.41l-1.1.37a1,1,0,0,0-.24-0.05h-1l-0.49.49v-1A15.59,15.59,0,0,0,25.7,101.3ZM49.42,43.45H46.36l1.53-1.53ZM52,107.83H51.21l-0.77-.77H48.12l-1.54,1.54-3.86-.77-5.4.77L37,106.92H52.75v0.14Zm11.56,9.83-0.77.77H62l0.77-3.08h0.77l0.77,2.31H63.54ZM75.1,113.8v-1.54H74.33v2.31H71.25v-3.86l4.63,1.54v-0.77L79,113.8H75.1Zm6.17,0.77v1.54H79.73Zm-0.77,2.31h0.77l1.54,1.54H80.5v-1.54Zm4.63,2.31H83.59v-0.77h1.54v0.77Zm14.65-11.57-0.72-.72h0.09l1,0.72H99.78Z" transform="translate(-1.11 -8.91)"/><rect class="2bb6a5d8-d01a-437f-936f-ccd1e2b3322d" x="126.43" y="84.07" width="1.54" height="0.77"/><rect class="2bb6a5d8-d01a-437f-936f-ccd1e2b3322d" x="122.97" y="68.95" width="1.54" height="0.77"/><polygon class="2bb6a5d8-d01a-437f-936f-ccd1e2b3322d" points="124.89 91.78 124.89 93.33 125.66 94.1 126.43 94.1 127.2 93.33 125.66 91.78 124.89 91.78"/><polygon class="2bb6a5d8-d01a-437f-936f-ccd1e2b3322d" points="77.85 115.69 77.85 114.14 76.31 114.14 77.85 115.69"/><polygon class="2bb6a5d8-d01a-437f-936f-ccd1e2b3322d" points="67.53 10.39 67.53 8.9 66.54 8.9 66.05 9.4 67.03 10.39 67.53 10.39"/><polygon class="2bb6a5d8-d01a-437f-936f-ccd1e2b3322d" points="7.92 82.24 6.93 82.24 5.94 83.23 7.92 83.23 7.92 82.24"/><polygon class="2bb6a5d8-d01a-437f-936f-ccd1e2b3322d" points="60.6 6.43 61.1 6.43 61.59 6.92 62.09 6.92 62.09 5.44 61.1 5.44 61.59 4.95 61.59 4.45 61.1 3.96 57.64 5.44 58.63 6.92 60.6 6.43"/><rect class="2bb6a5d8-d01a-437f-936f-ccd1e2b3322d" x="66.54" y="4.95" width="1.48" height="0.99"/><rect class="2bb6a5d8-d01a-437f-936f-ccd1e2b3322d" x="66.05" y="9.4" width="0.99" height="0.99"/><path class="2bb6a5d8-d01a-437f-936f-ccd1e2b3322d" d="M66.66,36.61l1,1q1.24,0,3.46-2l0.49,1.48,1-1,2,0.49h0.49l0.49-.49,1.48,1h0.49l1.48-1,1,1,0.49-.49,2,1,8.41-2-1-1.48V33.64l2.47-.49q4.95,0,5.44,2v0.49l-3.46-1h-2v1h3l3.46,2v-2h0.49l1.48,1h2l0.49-.49,0.49,0.49h0.49l0.49-.49v0.49l2.47-2V34.14l-1-1h-1v1.48l-1-1q-1.24,0-1.48,2H100.3V35.13l0.49-.49V34.14l-0.49-.49-2,1-2.47-2.47,0.49-2,1.48,1h0.49l0.49-.49v0.49l0.49,0.49,3-.49,3,1h0.49V30.68l-4.95-1h-3L97.33,28.2l1-2.47,4,1,0.49-.49V25.73l-0.49-.49V24.74l0.49-.49h-0.49l-0.49-.49h-3l-3-.49-2.47.49H88.42l0.49-.49-1-1h-2l-2,2v0.49q0,1.48,2,1.48v0.49H83.48L83,26.22v0.49l-0.49.49V28.7h2l2.47,0.49v1H84.47v1h3.46v0.49l-1.48.49,0.49,2.47-3.46,1.48L83,34.63l-1.48,1h-1L78,34.14V33.64l0.49-.49V32.66h-1l-3,2H73.09l-2-1.48H70.61q-2.47,1.73-2.47,3H67.65q-1,0-1-2H65.17l-0.49,2.47,0.49,0.49ZM91.39,26.22h1.48v0.49H91.39V26.22ZM90.9,27.71a10.51,10.51,0,0,0,4.95-1.48h0.49l-0.49,1.48q-1.48,0-1.48,1L90.9,28.2V27.71Zm-5.44-3H85v-1h1.48Zm2,7.91h1v0.49h-1V32.66Z" transform="translate(-1.11 -8.91)"/><path class="2bb6a5d8-d01a-437f-936f-ccd1e2b3322d" d="M60.23,19.3h1l0.49-2-1.48-1-2.47.49v1A3.38,3.38,0,0,1,60.23,19.3Z" transform="translate(-1.11 -8.91)"/><rect class="2bb6a5d8-d01a-437f-936f-ccd1e2b3322d" x="6.43" y="91.64" width="0.99" height="0.99"/><polygon class="2bb6a5d8-d01a-437f-936f-ccd1e2b3322d" points="7.18 87.8 6.19 88.79 6.19 89.78 6.68 89.78 8.17 88.79 7.18 87.8"/><polygon class="2bb6a5d8-d01a-437f-936f-ccd1e2b3322d" points="21.77 82.24 20.78 72.1 19.79 82.24 19.79 82.73 21.27 82.73 21.77 82.24"/><polygon class="2bb6a5d8-d01a-437f-936f-ccd1e2b3322d" points="15.83 87.19 16.82 86.2 16.82 85.7 15.83 84.71 14.35 84.71 13.36 85.7 14.84 87.19 15.83 87.19"/><path class="3f092d00-cef2-49c8-badf-cacf185b10d5" d="M85.43,71l1.3-9.84h-9A64.3,64.3,0,0,1,77.77,53C78,51.26,79.86,51,81.43,50.9c1.76-.07,3.52,0,5.46,0V42.4a0.68,0.68,0,0,0-.27-0.22C82,41.75,77.34,40.94,73,43.29s-5.64,6.65-5.8,11.33c-0.07,2,0,4.08,0,6.39H59.29v9.87H67V95.71h10.6V71h7.8Z" transform="translate(-1.11 -8.91)"/></svg>