<?xml version="1.0" encoding="UTF-8" standalone="no"?>
<svg width="160px" height="119px" viewBox="0 0 160 119" version="1.1" xmlns="http://www.w3.org/2000/svg" xmlns:xlink="http://www.w3.org/1999/xlink">
    <!-- Generator: Sketch 39.1 (31720) - http://www.bohemiancoding.com/sketch -->
    <title>separador@3x</title>
    <desc>Created with Sketch.</desc>
    <defs>
        <polygon id="path-1" points="0.506962439 7.24770642 8.16041361 7.24770642 8.16041361 0.348233945 0.506962439 0.348233945 0.506962439 7.24770642"></polygon>
        <polygon id="path-3" points="0 118.027523 159.579461 118.027523 159.579461 0.189449541 0 0.189449541"></polygon>
    </defs>
    <g id="Rush-medidas" stroke="none" stroke-width="1" fill="none" fill-rule="evenodd">
        <g id="team" transform="translate(-640.000000, -643.000000)">
            <g id="separador" transform="translate(640.000000, 643.000000)">
                <polygon id="Fill-1" fill="#E6E6E6" points="117.481792 15.4348853 116.718027 16.1997936 115.948995 15.4348853 115.18523 15.4348853 115.18523 17.7348853 119.778354 17.7348853 120.542119 18.8848853 124.371479 18.1147018 124.371479 19.6497936 125.135243 19.6497936 125.135243 16.5848853 124.371479 15.8199771 122.074916 16.5848853 121.311152 16.3263991 121.311152 16.1997936 118.250825 15.4348853"></polygon>
                <g id="Group-130" transform="translate(0.000000, 0.684220)">
                    <g id="Group-4" transform="translate(116.977464, 110.779817)">
                        <mask id="mask-2" fill="white">
                            <use xlink:href="#path-1"></use>
                        </mask>
                        <g id="Clip-3"></g>
                        <path d="M3.56728944,4.94823394 L1.27072735,4.18332569 L0.506962439,4.18332569 L0.506962439,5.7131422 L2.03449227,7.24823394 L4.33105435,7.24823394 L8.16041361,1.1131422 L7.3966487,0.348233945 C5.35291913,1.1131422 4.07822183,2.64823394 3.56728944,4.94823394" id="Fill-2" fill="#E6E6E6" mask="url(#mask-2)"></path>
                    </g>
                    <polygon id="Fill-5" fill="#E6E6E6" points="132.025456 112.66156 132.025456 114.196651 132.789221 114.96156 132.025456 114.96156 132.025456 115.726468 132.789221 116.496651 135.085783 114.96156 134.322019 112.66156"></polygon>
                    <polygon id="Fill-7" fill="#E6E6E6" points="112.891302 19.7331193 114.424099 21.268211 115.951629 21.268211 115.951629 18.968211 112.891302 18.968211"></polygon>
                    <mask id="mask-4" fill="white">
                        <use xlink:href="#path-3"></use>
                    </mask>
                    <g id="Clip-10"></g>
                    <polygon id="Fill-9" fill="#E6E6E6" mask="url(#mask-4)" points="98.3465842 13.6043578 99.8793814 13.6043578 99.8793814 12.0692661 98.3465842 12.0692661"></polygon>
                    <polygon id="Fill-11" fill="#E6E6E6" mask="url(#mask-4)" points="60.0814353 33.5299541 60.8452002 33.5299541 61.6142324 34.2948624 62.3779973 34.2948624 62.3779973 31.9948624 60.8452002 31.9948624 61.6142324 31.2299541 61.6142324 30.4650459 60.8452002 29.6948624 55.4883111 31.9948624 57.0211083 34.2948624"></polygon>
                    <polygon id="Fill-12" fill="#E6E6E6" mask="url(#mask-4)" points="74.6229925 38.1294266 75.3867574 37.3645183 75.3867574 36.5943349 74.6229925 35.8294266 74.6229925 35.0645183 76.1557897 35.0645183 76.1557897 37.3645183 77.6833195 37.3645183 78.4523517 36.5943349 76.9195546 35.0645183 77.6833195 32.7645183 81.5126787 32.7645183 83.0402086 31.2294266 83.0402086 30.4645183 79.2161167 29.6996101 77.6833195 31.2294266 72.3264304 35.0645183 72.3264304 35.8294266 73.8592276 38.1294266"></polygon>
                    <polygon id="Fill-13" fill="#E6E6E6" mask="url(#mask-4)" points="70.7962669 39.6624083 70.7962669 37.3624083 69.2634697 37.3624083 68.4997048 38.1273165 70.032502 39.6624083"></polygon>
                    <polygon id="Fill-14" fill="#E6E6E6" mask="url(#mask-4)" points="68.4965444 21.2692661 70.0293416 21.2692661 70.0293416 19.7341743 68.4965444 19.7341743"></polygon>
                    <polygon id="Fill-15" fill="#E6E6E6" mask="url(#mask-4)" points="69.2655767 32.7639908 71.5621388 32.7639908 71.5621388 31.2288991 69.2655767 31.2288991"></polygon>
                    <path d="M62.3774706,71.2916284 L62.3774706,72.8267202 L63.9102678,74.3565367 L63.9102678,75.1267202 L63.1412355,75.8916284 L64.6740327,77.421445 L65.4377976,77.421445 L66.9705948,75.8916284 L66.9705948,75.1267202 L66.2068299,74.3565367 L67.7343597,74.3565367 C68.1188758,72.8267202 69.1407406,71.8033257 70.7946867,71.2916284 L70.7946867,70.5267202 L70.0309218,69.7565367 L71.563719,67.4565367 L70.0309218,65.9267202 L70.0309218,65.1618119 L70.7946867,64.3916284 L70.7946867,62.8618119 L70.0309218,62.0916284 L63.1412355,62.8618119 L63.1412355,64.3916284 L63.9102678,65.1618119 L62.3774706,65.1618119 L62.3774706,65.9267202 L64.6740327,68.2267202 C64.4159328,70.2682339 63.6521679,71.2916284 62.3774706,71.2916284" id="Fill-16" fill="#E6E6E6" mask="url(#mask-4)"></path>
                    <polygon id="Fill-17" fill="#E6E6E6" mask="url(#mask-4)" points="59.3155634 67.4586468 60.8483606 65.923555 59.3155634 65.923555"></polygon>
                    <path d="M59.3155634,39.6624083 L60.0793283,36.5975 L57.7827662,35.0624083 L53.9586743,35.8273165 L53.9586743,37.3624083 C55.2333716,37.3624083 56.5080689,38.1273165 57.7827662,39.6624083 L59.3155634,39.6624083 Z" id="Fill-18" fill="#E6E6E6" mask="url(#mask-4)"></path>
                    <path d="M109.064576,20.4996101 L109.828341,20.4996101 L110.212857,20.1145183 L111.361138,20.1145183 L111.361138,18.5847018 L109.828341,18.5847018 L109.828341,18.9645183 L108.300811,17.4347018 L106.768014,17.4347018 L106.768014,18.9645183 C108.300811,18.9645183 109.064576,19.4762156 109.064576,20.4996101" id="Fill-19" fill="#E6E6E6" mask="url(#mask-4)"></path>
                    <polygon id="Fill-20" fill="#E6E6E6" mask="url(#mask-4)" points="100.643146 10.5394495 102.939708 10.5394495 102.939708 9.0043578 100.643146 9.0043578"></polygon>
                    <polygon id="Fill-21" fill="#E6E6E6" mask="url(#mask-4)" points="83.8034468 35.0639908 85.3362439 35.0639908 85.3362439 33.5288991 83.8034468 33.5288991"></polygon>
                    <polygon id="Fill-22" fill="#E6E6E6" mask="url(#mask-4)" points="89.1656032 33.5341743 89.9293681 33.5341743 89.9293681 31.9990826 89.1656032 31.9990826"></polygon>
                    <polygon id="Fill-23" fill="#E6E6E6" mask="url(#mask-4)" points="87.632806 35.8288991 89.1656032 35.8288991 89.1656032 35.0639908 87.632806 35.0639908"></polygon>
                    <polygon id="Fill-24" fill="#E6E6E6" mask="url(#mask-4)" points="87.632806 93.5188073 89.9293681 93.5188073 89.9293681 91.9837156 87.632806 91.9837156"></polygon>
                    <polygon id="Fill-25" fill="#E6E6E6" mask="url(#mask-4)" points="92.2259302 12.8341743 92.9896951 12.8341743 92.9896951 11.2990826 92.2259302 11.2990826"></polygon>
                    <polygon id="Fill-26" fill="#E6E6E6" mask="url(#mask-4)" points="137.382872 21.6490826 134.322545 21.6490826 134.322545 23.1841743 135.850075 23.1841743 135.850075 23.9490826 135.08631 24.7139908 136.619107 26.2490826 138.915669 26.2490826 138.915669 23.9490826 138.146637 23.1841743 138.915669 23.1841743"></polygon>
                    <polygon id="Fill-27" fill="#E6E6E6" mask="url(#mask-4)" points="142.740815 25.4815367 142.740815 24.7166284 141.208018 24.7166284 139.680488 26.246445 139.680488 27.0166284 141.208018 27.0166284"></polygon>
                    <polygon id="Fill-28" fill="#E6E6E6" mask="url(#mask-4)" points="141.209598 23.1820642 142.742395 23.1820642 143.50616 22.417156 143.50616 21.6469725 142.742395 20.8820642 144.269925 20.8820642 144.269925 19.3469725 142.742395 17.817156 140.445833 17.817156 135.088944 18.5820642 135.088944 20.117156 135.852709 20.8820642 141.209598 20.117156"></polygon>
                    <polygon id="Fill-29" fill="#E6E6E6" mask="url(#mask-4)" points="132.790802 13.2176835 131.258004 11.6825917 128.961442 11.6825917 128.961442 13.2176835 132.790802 13.9825917"></polygon>
                    <polygon id="Fill-30" fill="#E6E6E6" mask="url(#mask-4)" points="141.97547 16.2841743 144.272032 16.2841743 142.739235 14.7490826 141.97547 14.7490826"></polygon>
                    <polygon id="Fill-31" fill="#E6E6E6" mask="url(#mask-4)" points="135.086837 2.48681193 134.323072 3.25172018 133.55404 3.25172018 132.790275 2.48681193 132.790275 4.02190367 135.086837 4.02190367"></polygon>
                    <polygon id="Fill-32" fill="#E6E6E6" mask="url(#mask-4)" points="142.739761 9.38944954 144.272559 9.38944954 144.272559 7.8543578 142.739761 7.8543578"></polygon>
                    <polygon id="Fill-33" fill="#E6E6E6" mask="url(#mask-4)" points="141.209598 34.6799541 142.742395 37.7448624 144.269925 36.2150459 142.742395 34.6799541"></polygon>
                    <polygon id="Fill-34" fill="#E6E6E6" mask="url(#mask-4)" points="150.393213 56.1438073 151.92601 56.1438073 151.92601 55.3788991 150.393213 55.3788991"></polygon>
                    <polygon id="Fill-35" fill="#E6E6E6" mask="url(#mask-4)" points="149.629448 35.4438073 151.162245 35.4438073 151.162245 34.6788991 149.629448 34.6788991"></polygon>
                    <path d="M125.902696,7.08575688 C130.49582,7.08575688 133.303314,7.59745413 134.319912,8.62084862 L138.149271,7.85066514 L138.149271,5.55066514 L135.088944,6.32084862 L125.902696,4.02084862 L125.138931,4.02084862 L125.138931,6.32084862 L125.902696,7.08575688 Z" id="Fill-36" fill="#E6E6E6" mask="url(#mask-4)"></path>
                    <polygon id="Fill-37" fill="#E6E6E6" mask="url(#mask-4)" points="148.863576 63.0411697 148.863576 64.5762615 149.627341 65.3411697 150.396373 65.3411697 151.160138 64.5762615 149.627341 63.0411697"></polygon>
                    <path d="M150.394266,54.6092431 L150.394266,53.0741514 L149.630501,52.3092431 C147.586772,52.3092431 146.564907,51.5443349 146.564907,50.0092431 L147.333939,49.2443349 L147.333939,48.4794266 L146.564907,49.2443349 L141.97705,46.9443349 L141.208018,46.9443349 L141.97705,50.0092431 L149.630501,54.6092431 L150.394266,54.6092431 Z" id="Fill-38" fill="#E6E6E6" mask="url(#mask-4)"></path>
                    <polygon id="Fill-39" fill="#E6E6E6" mask="url(#mask-4)" points="147.332359 36.9794266 145.799562 38.5145183 147.332359 38.5145183"></polygon>
                    <path d="M134.321492,17.8166284 L134.321492,17.0517202 C134.321492,16.1549312 133.046795,15.3900229 130.492133,14.7517202 L130.492133,17.8166284 L131.261165,18.5815367 L134.321492,17.8166284 Z" id="Fill-40" fill="#E6E6E6" mask="url(#mask-4)"></path>
                    <polygon id="Fill-41" fill="#E6E6E6" mask="url(#mask-4)" points="148.863576 34.6799541 148.863576 33.1448624 146.567014 33.1448624 148.099811 34.6799541"></polygon>
                    <polygon id="Fill-42" fill="#E6E6E6" mask="url(#mask-4)" points="145.802195 40.0453899 145.802195 38.5102982 144.269398 40.0453899"></polygon>
                    <polygon id="Fill-43" fill="#E6E6E6" mask="url(#mask-4)" points="136.619107 30.0788991 138.151905 30.0788991 138.151905 28.5438073 136.619107 28.5438073"></polygon>
                    <polygon id="Fill-44" fill="#E6E6E6" mask="url(#mask-4)" points="98.3518515 15.5192661 99.1156164 15.5192661 99.1156164 13.9841743 98.3518515 13.9841743"></polygon>
                    <polygon id="Fill-45" fill="#E6E6E6" mask="url(#mask-4)" points="109.829921 11.6847018 111.362719 11.6847018 110.593686 10.9197936 112.126483 10.9197936 112.126483 9.38470183 108.297124 9.38470183 108.297124 10.9197936 109.829921 10.9197936"></polygon>
                    <path d="M136.617527,103.92578 L136.617527,104.432202 C137.165331,104.347798 137.091588,104.16844 136.617527,103.92578" id="Fill-46" fill="#E6E6E6" mask="url(#mask-4)"></path>
                    <path d="M26.7876058,87.6706881 L24.4910437,86.9057798 L23.7272788,86.9057798 L23.7272788,88.4355963 L25.2548087,89.9706881 L27.5513707,89.9706881 L31.38073,83.8355963 L30.6169651,83.0706881 C28.5732355,83.8355963 27.2985382,85.3706881 26.7876058,87.6706881" id="Fill-47" fill="#E6E6E6" mask="url(#mask-4)"></path>
                    <polygon id="Fill-48" fill="#E6E6E6" mask="url(#mask-4)" points="38.2683093 84.6041972 38.2683093 86.139289 39.0320742 86.9041972 38.2683093 86.9041972 38.2683093 87.6691055 39.0320742 88.439289 41.3286363 86.9041972 40.5648714 84.6041972"></polygon>
                    <path d="M38.2683093,72.5423853 L38.2683093,71.7774771 L39.0320742,67.9423853 L38.2683093,67.1774771 L30.6148582,71.0072936 L30.6148582,70.2423853 L24.4942042,71.0072936 L24.4942042,72.5423853 L29.8510932,72.5423853 L30.6148582,71.7774771 L30.6148582,72.5423853 L34.4389501,71.7774771 L36.7355122,71.7774771 L37.5045444,72.5423853 L35.9717472,76.3774771 L35.9717472,77.1423853 L37.5045444,77.1423853 L41.3286363,74.0774771 C39.2901741,74.0774771 38.2683093,73.5657798 38.2683093,72.5423853" id="Fill-49" fill="#E6E6E6" mask="url(#mask-4)"></path>
                    <polygon id="Fill-50" fill="#E6E6E6" mask="url(#mask-4)" points="29.0836412 69.476422 29.8474061 68.7115138 28.3198763 67.176422 27.550844 67.176422 26.7870791 67.9413303 28.3198763 69.476422"></polygon>
                    <polygon id="Fill-51" fill="#E6E6E6" mask="url(#mask-4)" points="9.18466814 57.7764908 8.42090323 57.0115826 6.88810605 58.5413991 9.18466814 58.5413991"></polygon>
                    <path d="M14.5431374,70.808945 L15.3069023,70.808945 L15.3069023,69.2738532 L14.5431374,69.2738532 L14.5431374,70.808945 Z M18.3672293,63.908945 C18.3672293,59.8206422 17.6034644,57.7738532 16.0706673,57.7738532 L16.0706673,62.3738532 C15.0540698,62.3738532 14.5431374,61.0972477 14.5431374,58.5440367 L13.7741052,58.5440367 L13.0103403,59.308945 L12.2465753,59.308945 L12.2465753,58.5440367 L13.0103403,57.7738532 L13.0103403,57.008945 L12.2465753,56.2440367 L9.95001326,58.5440367 L9.95001326,60.0738532 C11.8620592,63.6557339 13.3948564,65.4440367 14.5431374,65.4440367 L12.2465753,68.508945 L12.2465753,69.2738532 L13.7741052,69.2738532 L13.7741052,70.0387615 L12.2465753,70.0387615 L11.4828104,69.2738532 L11.4828104,70.0387615 L10.7137782,70.808945 L13.7741052,73.8738532 L14.5431374,73.8738532 L15.3069023,73.108945 L15.3069023,73.8738532 L17.6034644,73.108945 L18.3672293,73.108945 L17.6034644,73.8738532 L19.1362616,76.1738532 L19.9000265,76.1738532 L20.6637914,75.4036697 L19.9000265,70.0387615 L21.4328237,66.9738532 L18.3672293,63.908945 Z" id="Fill-52" fill="#E6E6E6" mask="url(#mask-4)"></path>
                    <polygon id="Fill-53" fill="#E6E6E6" mask="url(#mask-4)" points="19.8994998 62.5774771 22.1960619 62.5774771 22.1960619 61.0423853 21.432297 61.0423853"></polygon>
                    <path d="M9.18466814,63.1419266 L0.767452055,60.0770183 L0.767452055,60.8419266 L-0.00158020327,61.6068349 L-0.00158020327,64.6770183 L4.59154397,64.6770183 L5.35530888,66.9770183 L5.35530888,67.7419266 L7.65187097,66.9770183 L8.42090323,66.9770183 L9.18466814,67.7419266 L12.2449951,65.4419266 C12.2449951,64.1653211 11.2231304,63.3951376 9.18466814,63.1419266" id="Fill-54" fill="#E6E6E6" mask="url(#mask-4)"></path>
                    <path d="M40.5643447,60.2780046 L39.0315475,58.7429128 C39.0315475,57.4663073 40.0534123,56.7013991 42.0971418,56.4429128 L42.0971418,54.9130963 L37.5040177,55.6780046 L36.7349854,55.6780046 L35.9712205,54.9130963 L34.4436907,56.4429128 L27.5540044,60.2780046 L27.5540044,62.5780046 L29.0815342,64.8780046 L40.5643447,60.2780046 Z" id="Fill-55" fill="#E6E6E6" mask="url(#mask-4)"></path>
                    <polygon id="Fill-56" fill="#E6E6E6" mask="url(#mask-4)" points="60.4638445 75.6083486 61.2276094 75.6083486 61.2276094 74.0732569 58.9310473 74.0732569"></polygon>
                    <path d="M45.1564154,51.0801147 C49.0700521,51.0801147 51.5351692,50.6844725 52.7150544,49.9353899 L63.1443959,47.3294266 C63.1443959,46.5592431 62.1225312,45.7943349 60.0788016,45.0294266 L59.3150367,45.0294266 L58.5512718,45.7943349 L58.5512718,45.0294266 L57.7875068,44.2592431 C52.0461016,45.0294266 48.2167424,46.3060321 46.3046964,48.0943349 C46.3046964,48.3950229 46.7313513,48.695711 47.2054123,48.9963991 C45.7200212,49.202133 44.4505913,49.5766743 43.6236182,50.3152064 C43.6236182,47.7567202 42.3489209,46.4801147 39.7995263,46.4801147 L38.2667291,46.4801147 L38.2667291,49.5450229 L35.970167,48.7801147 L35.2064021,48.7801147 L34.4426372,49.5450229 L35.970167,51.0801147 L45.1564154,51.0801147 Z" id="Fill-57" fill="#E6E6E6" mask="url(#mask-4)"></path>
                    <path d="M42.86038,75.6083486 L42.86038,76.3732569 C46.9425718,75.7349541 48.981034,74.7168349 48.981034,73.3083486 L48.981034,71.7732569 L48.2172691,71.0083486 L42.86038,75.6083486 Z" id="Fill-58" fill="#E6E6E6" mask="url(#mask-4)"></path>
                    <polygon id="Fill-59" fill="#E6E6E6" mask="url(#mask-4)" points="51.2775961 74.0743119 52.8103933 74.0743119 52.8103933 72.5392202 51.2775961 72.5392202"></polygon>
                    <polygon id="Fill-60" fill="#E6E6E6" mask="url(#mask-4)" points="122.07597 3.25277523 125.136297 4.01768349 125.136297 3.25277523 123.608767 1.71768349 118.246611 1.71768349 119.779408 4.01768349"></polygon>
                    <polygon id="Fill-61" fill="#E6E6E6" mask="url(#mask-4)" points="118.249244 1.71979358 118.249244 0.184701835 115.952682 0.184701835 117.485479 1.71979358"></polygon>
                    <polygon id="Fill-62" fill="#E6E6E6" mask="url(#mask-4)" points="119.779408 20.1139908 121.312205 20.1139908 121.312205 18.5788991 119.779408 18.5788991"></polygon>
                    <path d="M108.299231,7.08575688 L124.369898,9.62841743 L124.369898,10.1506651 L126.66646,12.4506651 L128.199258,12.4506651 L125.565586,9.81832569 L137.385506,11.6857569 L137.385506,10.9208486 L121.804702,7.63438073 L122.842369,5.55066514 L122.842369,4.78575688 L120.545806,4.78575688 L119.782042,5.55066514 C119.782042,4.65915138 118.502077,4.14745413 115.952682,4.02084862 L115.188917,4.02084862 L114.419885,4.78575688 L116.979814,6.61626147 L108.299231,4.78575688 L109.062996,5.55066514 L109.062996,6.32084862 L108.299231,7.08575688 Z" id="Fill-63" fill="#E6E6E6" mask="url(#mask-4)"></path>
                    <path d="M141.97547,7.85224771 L141.97547,6.31715596 C140.953605,6.31715596 140.442673,7.08733945 140.442673,8.61715596 L138.915143,8.61715596 L138.915143,10.1522477 L139.678908,10.917156 L141.97547,7.85224771 Z" id="Fill-64" fill="#E6E6E6" mask="url(#mask-4)"></path>
                    <polygon id="Fill-65" fill="#E6E6E6" mask="url(#mask-4)" points="129.729421 30.8490826 131.262218 30.8490826 131.262218 30.0841743 129.729421 30.0841743"></polygon>
                    <path d="M76.1536827,56.7277752 L76.311703,56.6222706 C76.0904746,56.6328211 75.8850482,56.7119495 75.6690871,56.7277752 L76.1536827,56.7277752 Z" id="Fill-66" fill="#E6E6E6" mask="url(#mask-4)"></path>
                    <polygon id="Fill-67" fill="#E6E6E6" mask="url(#mask-4)" points="73.0896686 75.8942661 74.6224658 75.8942661 74.6224658 74.3591743 73.0896686 74.3591743"></polygon>
                    <polygon id="Fill-68" fill="#E6E6E6" mask="url(#mask-4)" points="106.003196 47.1252752 104.064813 48.4177064 106.766961 48.0431651 106.766961 47.1252752"></polygon>
                    <path d="M115.750943,26.0676147 L115.324288,26.4949083 C115.524447,26.3524771 115.719339,26.2047706 115.956369,26.0939908 L115.750943,26.0676147 Z" id="Fill-69" fill="#E6E6E6" mask="url(#mask-4)"></path>
                    <polygon id="Fill-70" fill="#E6E6E6" mask="url(#mask-4)" points="127.02464 26.9127064 126.66646 26.9601835 126.66646 27.0129358"></polygon>
                    <path d="M115.326922,26.4922706 C115.268981,26.5344725 115.195238,26.5661239 115.137297,26.6136009 C115.153099,26.6188761 115.163634,26.6241514 115.189971,26.6294266 L115.326922,26.4922706 Z" id="Fill-71" fill="#E6E6E6" mask="url(#mask-4)"></path>
                    <path d="M114.302423,27.6338303 C114.197076,27.8184633 114.044323,27.9661697 113.970581,28.1719037 L115.345357,28.4673165 L117.605048,28.1666284 L117.483899,28.1666284 L114.302423,27.6338303 Z" id="Fill-72" fill="#E6E6E6" mask="url(#mask-4)"></path>
                    <polygon id="Fill-73" fill="#E6E6E6" mask="url(#mask-4)" points="128.538475 51.0099541 128.965129 51.0732569 128.965129 50.9519266"></polygon>
                    <path d="M135.852182,52.3097706 L136.974126,52.3097706 L135.088417,52.019633 L135.088417,51.5448624 L132.791855,51.5448624 L132.686508,51.650367 L128.962496,51.075367 L128.962496,52.7687156 C129.315408,52.8161927 129.636716,52.8583945 129.973826,52.9005963 L132.022823,52.4891284 L132.022823,53.1801835 C132.375735,53.2276606 132.712845,53.2751376 133.034153,53.3226147 L133.55562,53.8448624 L133.945403,53.4492202 C135.088417,53.6127523 136.026004,53.7551835 136.631749,53.8554128 L135.852182,53.0746789 L135.852182,52.3097706 Z" id="Fill-74" fill="#E6E6E6" mask="url(#mask-4)"></path>
                    <path d="M115.136244,26.6130734 C114.999293,26.5655963 114.92555,26.5286697 114.772797,26.4811927 L113.719328,27.5362385 L114.304004,27.6364679 C114.525232,27.2461009 114.788599,26.8926606 115.136244,26.6130734" id="Fill-75" fill="#E6E6E6" mask="url(#mask-4)"></path>
                    <path d="M135.852182,50.0102982 L135.019942,49.1768119 C134.335187,49.0343807 133.529283,48.9183257 132.665439,48.8075459 L130.495293,49.2453899 L131.101038,48.6387385 C130.426817,48.5754358 129.726261,48.5226835 128.962496,48.4752064 L128.962496,50.9545642 L135.852182,50.0102982 Z" id="Fill-76" fill="#E6E6E6" mask="url(#mask-4)"></path>
                    <polygon id="Fill-77" fill="#E6E6E6" mask="url(#mask-4)" points="127.713082 50.8828211 127.628804 51.1360321 128.540055 51.0094266"></polygon>
                    <path d="M128.204525,54.9088761 L127.677791,54.7928211 C125.907963,54.9827294 123.932709,55.2201147 121.857375,55.4944266 L121.883712,55.5682798 C122.320901,55.6368578 122.731754,55.7159862 123.126805,55.7898394 L124.369898,55.3783716 L125.138931,55.3783716 C125.08099,55.6896101 125.012514,55.9217202 124.954574,56.2065826 C125.607724,56.3753899 126.176597,56.5600229 126.66646,56.7552064 L128.204525,54.9088761 Z" id="Fill-78" fill="#E6E6E6" mask="url(#mask-4)"></path>
                    <polygon id="Fill-79" fill="#E6E6E6" mask="url(#mask-4)" points="130.877702 54.9922248 130.493186 54.607133 129.729421 54.607133 129.207954 55.1293807 130.493186 55.4195183 130.493186 55.3773165"></polygon>
                    <path d="M130.494766,55.4184633 L130.494766,56.1411697 L131.258531,56.1411697 C131.843206,56.1411697 132.21192,55.8193807 132.464753,55.3235092 L132.027563,55.7613532 L130.494766,55.4184633 Z" id="Fill-80" fill="#E6E6E6" mask="url(#mask-4)"></path>
                    <path d="M132.462646,55.3208716 L132.599597,55.1837156 L132.483715,55.2206422 C132.473181,55.2470183 132.473181,55.2944954 132.462646,55.3208716" id="Fill-81" fill="#E6E6E6" mask="url(#mask-4)"></path>
                    <path d="M130.877702,54.9922248 L131.262218,55.3773165 L132.025983,55.3773165 L132.484242,55.2243349 C132.536916,55.1030046 132.54745,54.9236468 132.584322,54.7759404 L131.262218,54.5649312 L131.262218,54.607133 L130.877702,54.9922248 Z" id="Fill-82" fill="#E6E6E6" mask="url(#mask-4)"></path>
                    <polygon id="Fill-83" fill="#E6E6E6" mask="url(#mask-4)" points="113.656647 58.0587156 113.656647 57.4942661 112.12385 57.4942661 112.12385 58.2591743 112.487297 58.6231651 112.892882 58.6231651 112.892882 59.0293578 113.456488 59.5938073 113.656647 59.5938073 113.656647 58.6231651 114.420412 58.6231651 114.420412 58.0587156"></polygon>
                    <polygon id="Fill-84" fill="#E6E6E6" mask="url(#mask-4)" points="129.207427 55.1314908 128.965129 55.0787385 128.965129 55.3741514"></polygon>
                    <polygon id="Fill-85" fill="#E6E6E6" mask="url(#mask-4)" points="133.413928 54.9120413 132.945135 54.8381881 132.59749 55.1863532"></polygon>
                    <path d="M120.219231,55.3108486 C120.277172,55.1947936 120.282439,54.9996101 120.319311,54.8571789 L119.207901,55.1895183 C119.539744,55.2317202 119.90319,55.2686468 120.219231,55.3108486" id="Fill-86" fill="#E6E6E6" mask="url(#mask-4)"></path>
                    <path d="M133.556147,58.3725917 L133.556147,58.056078 L133.719434,58.056078 L133.830049,57.4177752 C133.471869,57.7395642 132.860857,58.0086009 132.070756,58.2354358 L133.556147,58.3725917 Z" id="Fill-87" fill="#E6E6E6" mask="url(#mask-4)"></path>
                    <path d="M123.60666,51.0373853 L123.60666,50.9582569 L123.517115,50.9582569 C123.11153,50.615367 122.632202,50.3041284 122.073863,50.0192661 L122.073863,50.9582569 L121.310098,50.9582569 L120.551601,51.7178899 C121.046731,51.7759174 121.547129,51.8392202 122.052794,51.8972477 L122.384636,51.8497706 L122.479449,51.95 C122.748083,51.9816514 123.016718,52.0133028 123.285352,52.0449541 L123.60666,51.7231651 L123.60666,51.6862385 L124.212405,51.6018349 C124.049117,51.3961009 123.817354,51.2220183 123.60666,51.0373853" id="Fill-88" fill="#E6E6E6" mask="url(#mask-4)"></path>
                    <polygon id="Fill-89" fill="#E6E6E6" mask="url(#mask-4)" points="132.790802 32.1715826 132.790802 31.9975 129.098393 31.2589679 129.145799 31.3961239"></polygon>
                    <path d="M104.518331,45.4804587 L103.70716,44.2618807 L103.70716,43.4969725 L107.531252,42.726789 C110.143855,42.726789 112.087505,43.0274771 113.493886,43.5655505 L104.518331,45.4804587 Z M99.1140362,36.5969725 L99.1140362,36.7763303 L98.0816368,36.3912385 L99.1140362,36.5969725 Z M96.0537092,28.167156 L98.3502713,28.167156 L96.8174741,29.6969725 L96.0537092,29.6969725 L96.0537092,28.167156 Z M115.189971,30.0820642 L115.953736,30.0820642 L115.953736,28.7316055 L115.189971,28.7316055 L115.189971,30.0820642 Z M106.003722,32.7618807 L108.300285,32.7618807 L108.300285,31.9969725 L106.003722,31.9969725 L106.003722,32.7618807 Z M110.696926,35.6263303 L109.179931,35.6263303 L105.239958,35.0618807 L105.239958,34.2969725 C106.809626,34.2969725 108.553117,33.8011009 110.365084,33.0836697 C110.928689,33.6270183 111.444889,34.101789 111.929485,34.5132569 C111.228928,34.6926147 110.781204,35.0355046 110.696926,35.6263303 L110.696926,35.6263303 Z M122.843422,32.7618807 L116.717501,31.2320642 L116.822848,31.1529358 L123.333285,32.2660092 L122.843422,32.7618807 Z M115.189971,32.3820642 L116.717501,31.2320642 L115.953736,33.1469725 L115.189971,32.3820642 Z M115.864191,37.0875688 L113.657174,37.6731193 L113.657174,37.620367 L115.189971,37.161422 L115.189971,36.4228899 L113.657174,36.6655505 L113.657174,35.7898624 C114.257651,36.148578 114.79492,36.3965138 115.189971,36.3965138 L115.189971,36.4228899 L115.616626,36.3543119 L115.864191,37.0875688 Z M130.928795,39.0183028 C130.791844,39.0394037 130.644359,39.0605046 130.496873,39.0868807 L130.496873,38.5118807 L128.964076,38.5118807 L128.964076,36.3965138 L130.928795,39.0183028 Z M118.42412,40.4004128 L118.250298,40.426789 L118.044871,40.2263303 L118.250298,40.2263303 L118.42412,40.4004128 Z M99.8778011,42.726789 L101.410598,42.726789 L101.410598,42.5263303 L99.8778011,42.5263303 L99.8778011,42.726789 Z M114.947673,43.2543119 L113.657174,43.5286239 L113.657174,41.9618807 L113.241053,41.5451376 C113.378004,41.5240367 113.514955,41.508211 113.657174,41.4871101 L113.657174,41.9618807 L114.947673,43.2543119 Z M113.657174,47.8912385 L113.657174,47.4375688 L113.946878,47.6011009 L114.420939,47.1263303 L115.189971,47.8912385 L117.481266,47.4322936 L117.481266,46.5618807 L118.250298,46.5618807 L119.014063,47.073578 L119.014063,46.3455963 L113.657174,47.0894037 L113.657174,45.9024771 L112.566833,45.5912385 L113.657174,45.5912385 L113.657174,45.9024771 L115.953736,46.5618807 L115.953736,45.7969725 C115.932666,45.717844 115.858924,45.6650917 115.832587,45.5912385 L118.429388,45.5912385 L118.250298,45.4118807 L118.250298,44.6469725 L118.334575,44.2196789 L119.777828,43.4969725 L120.54686,44.2618807 L120.54686,45.026789 L119.777828,45.7969725 L119.777828,46.2400917 L123.796811,45.6809174 C124.149723,44.2513303 124.834478,43.4969725 125.903749,43.4969725 L127.431279,45.026789 L127.431279,42.726789 L128.964076,42.726789 L128.964076,40.2579817 L128.200311,40.4215138 L128.200311,41.1969725 L127.431279,41.1969725 L126.319869,40.8224312 L124.370952,41.2391743 L124.370952,41.761422 L122.843422,41.761422 L122.843422,41.5662385 L119.777828,42.220367 L119.777828,42.5263303 L119.014063,42.5263303 L118.898181,42.4102752 L118.687487,42.4524771 L118.729626,42.2414679 L117.481266,40.9912385 L117.481266,40.9701376 C117.923722,40.9121101 118.376714,40.8488073 118.813904,40.7907798 L118.982459,40.9648624 L119.014063,40.8118807 L118.971924,40.7696789 C120.741752,40.5217431 122.416767,40.2843578 124.012772,40.0522477 L122.843422,39.6618807 L118.576873,40.3740367 L117.481266,39.276789 L119.777828,37.3618807 L120.54686,37.3618807 L128.200311,38.8969725 L128.200311,39.4403211 C128.474213,39.3981193 128.705976,39.3611927 128.964076,39.3242661 L128.964076,39.276789 L129.243245,39.276789 C129.148433,39.2926147 129.064156,39.3084404 128.964076,39.3242661 L128.964076,40.2579817 L130.496873,39.9309174 L130.496873,42.4999541 L130.633824,42.5263303 L130.496873,42.5263303 L130.496873,42.4999541 L129.727841,42.3469725 L129.1537,42.9219725 L130.496873,44.2618807 L130.496873,42.726789 L131.639887,42.726789 L132.024403,42.8059174 L132.024403,42.726789 L133.5572,42.726789 L133.5572,41.1969725 L132.024403,39.6618807 L131.761036,39.6618807 L133.5572,39.276789 L133.5572,38.5118807 C133.773161,38.5118807 133.425517,38.5910092 132.777633,38.7070642 L132.788168,38.6912385 L129.727841,35.6263303 L128.964076,35.6263303 L128.964076,34.238945 L129.880594,34.0965138 L129.727841,34.0965138 L128.964076,33.3263303 L128.964076,33.2366514 L130.454734,33.4898624 L130.033347,33.067844 L129.727841,33.1469725 L129.538217,32.5719725 L128.964076,31.9969725 L128.964076,31.7965138 L129.438137,32.2660092 L129.148433,31.3955963 L128.964076,31.3586697 L128.964076,31.2320642 L129.101027,31.2584404 L128.964076,30.8469725 L128.964076,27.961422 L128.784986,27.7820642 L124.61325,27.2334404 L117.602414,28.167156 L122.07439,28.167156 L122.843422,28.9320642 L123.607187,28.9320642 L122.843422,29.6969725 L122.843422,30.0556881 L115.342724,28.4625688 L113.873135,28.6577523 C113.915274,28.5047706 113.915274,28.3148624 113.967947,28.1724312 L113.657174,28.1038532 L113.657174,27.6027064 L113.720382,27.5341284 L112.893409,27.3969725 L109.064049,28.167156 L101.410598,28.167156 L102.174363,27.3969725 L100.646833,25.867156 L97.5865064,25.867156 L94.5209121,28.9320642 L94.5209121,29.6969725 C94.5209121,31.2320642 95.5427768,31.9969725 97.5865064,31.9969725 L97.5865064,32.7618807 L93.7571471,32.7618807 L92.9933822,31.9969725 L92.9933822,32.7618807 L92.22435,33.5320642 L92.22435,35.8320642 L95.2899443,35.8320642 L96.0537092,35.9850459 L96.0537092,36.3965138 L96.6331171,38.126789 L95.2899443,38.126789 L95.2899443,39.6618807 L100.646833,39.6618807 L100.646833,40.426789 L98.3502713,41.1969725 L98.4503509,41.692844 L95.2899443,42.5263303 L95.2899443,43.2912385 C95.2899443,43.4653211 96.4908988,43.4336697 98.360806,43.2806881 L98.697916,42.9430734 L98.7611242,43.2490367 C98.6136385,43.2595872 98.5030243,43.2701376 98.360806,43.2806881 L97.5865064,44.061422 L98.9191445,44.061422 L99.1140362,45.026789 L93.7571471,47.326789 L92.9933822,45.026789 L90.6968202,46.5618807 L89.164023,46.5618807 L85.3399311,44.2618807 L85.3399311,43.4969725 L86.103696,42.726789 L86.103696,41.9618807 L84.5708988,41.9618807 L79.983042,45.026789 L77.6864799,45.026789 L74.6208856,42.726789 L73.8571206,42.726789 C71.307726,44.5150917 70.0330287,46.0501835 70.0330287,47.326789 L69.2639965,47.326789 C68.247399,47.326789 67.7364666,46.3033945 67.7364666,44.2618807 L65.4399046,44.2618807 L64.6708723,48.0916972 L65.4399046,48.8618807 L67.7364666,48.0916972 L69.2639965,49.626789 C70.5386938,49.626789 72.3243235,48.6033945 74.6208856,46.5618807 L75.3899178,48.8618807 L76.9174476,47.326789 L79.983042,48.0916972 L80.7468069,48.0916972 L81.5105718,47.326789 L83.8071339,48.8618807 L84.5708988,48.8618807 L86.8674609,47.326789 L88.4002581,48.8618807 L89.164023,48.0916972 L92.22435,49.626789 L101.305251,47.4850459 C101.1683,48.2024771 100.615229,48.7194495 99.66184,49.0306881 L102.943395,48.5770183 L102.943395,47.1263303 L102.843316,47.1263303 L105.239958,46.5618807 L104.592074,45.5912385 L107.531252,45.5912385 L107.531252,46.5618807 L108.500444,46.5618807 L109.064049,47.1263303 L108.36876,47.8226606 L110.933957,47.463945 L110.033241,46.5618807 L112.124376,46.5618807 L113.167311,47.1579817 L110.933957,47.463945 L111.360612,47.8912385 L112.893409,47.8912385 L113.657174,47.8912385 Z" id="Fill-90" fill="#E6E6E6" mask="url(#mask-4)"></path>
                    <path d="M133.831102,57.4161927 C134.131341,57.147156 134.320965,56.8570183 134.320965,56.5246789 L134.320965,55.0581651 L134.247222,55.0476147 L133.831102,57.4161927 Z" id="Fill-91" fill="#E6E6E6" mask="url(#mask-4)"></path>
                    <path d="M132.069702,58.2370183 L128.551116,57.9152294 C128.798681,58.205367 128.961969,58.506055 128.961969,58.827844 C130.263003,58.6854128 131.242729,58.4796789 132.069702,58.2370183" id="Fill-92" fill="#E6E6E6" mask="url(#mask-4)"></path>
                    <polygon id="Fill-93" fill="#E6E6E6" mask="url(#mask-4)" points="133.556147 58.3725917 133.556147 58.5519495 133.635157 58.5413991 133.556147 58.9897936 133.556147 59.5911697 134.319912 59.5911697 134.319912 58.056078 133.719434 58.056078 133.661494 58.3831422"></polygon>
                    <path d="M128.549536,57.9162844 C128.186089,57.4942661 127.559275,57.1091743 126.669094,56.7557339 L125.900062,57.6736239 L128.549536,57.9162844 Z" id="Fill-94" fill="#E6E6E6" mask="url(#mask-4)"></path>
                    <polygon id="Fill-95" fill="#E6E6E6" mask="url(#mask-4)" points="129.437084 32.2686468 129.537163 32.5693349 130.037561 33.0704817 130.195581 33.0282798"></polygon>
                    <polygon id="Fill-96" fill="#E6E6E6" mask="url(#mask-4)" points="112.125957 48.6582569 112.889722 48.6582569 112.889722 48.6002294 111.915263 48.4472477"></polygon>
                    <polygon id="Fill-97" fill="#E6E6E6" mask="url(#mask-4)" points="110.952392 48.3005963 111.916316 48.4483028 111.363245 47.8891284"></polygon>
                    <path d="M103.54756,91.4018578 C103.889937,91.475711 104.190176,91.5759404 104.464078,91.681445 L105.786181,91.4546101 C105.770379,91.4335092 105.754577,91.4229587 105.738775,91.4018578 L103.54756,91.4018578 Z" id="Fill-98" fill="#E6E6E6" mask="url(#mask-4)"></path>
                    <polygon id="Fill-99" fill="#E6E6E6" mask="url(#mask-4)" points="109.064576 48.6582569 110.597373 48.6582569 110.950285 48.2995413 108.300811 47.8933486"></polygon>
                    <path d="M115.952682,52.7312615 L115.952682,52.6943349 L114.419885,52.6943349 L114.419885,52.9422706 L113.903685,53.0108486 L113.65612,53.2587844 L112.892355,53.2587844 L112.82388,53.158555 L112.12859,53.2535092 L112.123323,53.2587844 L112.107521,53.2587844 L111.096191,53.3959404 L110.953973,53.2587844 L112.107521,53.2587844 L112.12859,53.2535092 L112.586849,52.7998394 L112.82388,53.158555 L113.903685,53.0108486 L114.419885,52.4886009 L113.924755,51.7500688 L113.65612,51.7025917 L113.65612,51.3649771 L113.65612,51.3438761 L113.924755,51.7500688 L118.143897,52.4305734 L115.952682,52.7312615 Z M112.344551,55.6062615 L112.892355,55.5587844 L112.892355,56.0124541 C112.665859,55.8963991 112.4657,55.7697936 112.344551,55.6062615 L112.344551,55.6062615 Z M110.669536,55.7592431 L111.428034,55.6906651 L111.359558,55.7592431 L110.669536,55.7592431 Z M107.730358,56.0282798 L109.979514,55.8225459 C109.92684,56.1232339 109.832028,56.3289679 109.832028,56.7298853 L107.730358,56.0282798 Z M95.8208926,55.4849312 C94.5198586,54.8782798 93.7560937,54.2716284 93.7560937,53.6597018 L95.2888909,53.6597018 L94.5198586,52.8947936 L94.5198586,52.1298853 L95.2888909,51.3649771 C97.6223243,51.6867661 99.3500133,52.1140596 100.498294,52.6363073 C99.6555192,52.9000688 99.1129828,53.1163532 99.1129828,53.2587844 L98.3492179,54.0236927 L101.672912,53.4012156 C101.99422,53.7177294 102.178577,54.055344 102.178577,54.4298853 L102.178577,54.6145183 L95.8208926,55.4849312 Z M91.4595316,58.0592431 L90.6957667,58.0592431 L89.9320018,57.2943349 L87.6354397,58.8241514 L85.3388776,58.8241514 L89.1629695,55.7592431 L95.994715,55.7592431 L99.4026867,56.7351606 L91.4595316,58.0592431 Z M84.5751127,58.0592431 L82.2785506,58.0592431 L81.5095183,55.7592431 L81.5095183,54.9943349 L83.0423155,54.9943349 L84.5751127,56.5241514 L84.5751127,58.0592431 Z M104.617357,54.2821789 L104.875457,54.0236927 L105.238904,54.0236927 L105.238904,53.6597018 L106.002669,52.8947936 L107.535466,52.8947936 L108.399311,53.7652064 L104.617357,54.2821789 Z M110.595793,51.7289679 L110.595793,52.4569495 C110.611595,52.4569495 110.627397,52.4463991 110.643199,52.4411239 L110.595793,52.4886009 L110.595793,52.4569495 C110.348228,52.5044266 110.063791,52.6943349 109.832028,52.6943349 L108.789094,52.0665826 L110.595793,51.7289679 Z M112.892355,50.1938761 L113.403288,50.9587844 L113.524437,50.9587844 C113.513902,50.9693349 113.4981,50.9798853 113.487565,50.9904358 C113.461228,50.9851606 113.445426,50.9851606 113.41909,50.9851606 L113.445426,51.0220872 C113.350614,51.1012156 113.261069,51.1750688 113.166257,51.2436468 L112.544711,51.3649771 L111.723005,51.3649771 L112.123323,50.9587844 L113.076712,50.9587844 C112.48677,50.9113073 111.949501,50.8743807 111.470172,50.8480046 L112.123323,50.1938761 L112.892355,50.1938761 Z M134.319912,54.6092431 L134.103951,54.3929587 C134.346248,54.4351606 134.456863,54.4984633 134.319912,54.6092431 L134.319912,54.6092431 Z M128.963023,67.6390596 L131.259585,67.6390596 L131.259585,69.9390596 L129.726787,73.7741514 L128.963023,73.7741514 L128.963023,67.6390596 L122.842369,66.1092431 L123.606133,65.3390596 L122.726487,62.6908945 C125.249545,62.2899771 127.214264,61.9523624 128.199258,61.736078 L128.199258,62.2741514 L128.963023,63.0390596 L128.963023,63.8092431 L128.199258,64.5741514 L128.199258,65.3390596 L128.963023,67.6390596 Z M102.647371,74.2700229 C102.800124,74.0379128 102.942342,73.811078 102.942342,73.5895183 L102.942342,72.8246101 L102.178577,72.0597018 L104.469872,71.2895183 L104.469872,69.7597018 C102.43141,69.7597018 101.409545,69.2480046 101.409545,68.2246101 L101.409545,67.4597018 L105.238904,67.4597018 L107.898913,64.795711 C109.379037,64.6058028 110.917101,64.405344 112.502572,64.1890596 L113.65612,65.9246101 L102.647371,74.2700229 Z M98.3492179,65.9246101 L98.2702077,65.439289 L98.3492179,65.5236927 C98.1174547,65.7558028 99.5080336,65.7030505 101.746655,65.4920413 L102.178577,65.9246101 L98.3492179,65.9246101 Z M96.8164207,78.6853899 L96.8164207,77.4246101 C98.412426,76.8759862 99.6028458,76.3537385 100.572037,75.8420413 L96.8164207,78.6853899 Z M130.49582,99.8337844 L131.259585,100.598693 L130.869801,101.57461 L126.840283,100.108096 L128.199258,99.8337844 L130.49582,99.8337844 Z M108.299231,98.8631422 L109.062996,98.8631422 L109.062996,97.3280505 L108.299231,97.3280505 L108.299231,98.8631422 Z M92.9923288,81.5867661 L91.4595316,82.7473165 L91.4595316,81.2544266 L92.9923288,81.2544266 L92.9923288,81.5867661 Z M87.3615378,85.8544266 L86.8664074,85.8544266 L86.8664074,85.0895183 L88.3728679,85.0895183 L87.3615378,85.8544266 Z M84.427627,88.6133716 C84.4592311,88.4551147 84.5751127,88.3285092 84.5751127,88.1544266 C84.7067963,88.1544266 84.7594697,88.2810321 84.8806186,88.3074083 C84.7594697,88.4287385 84.6067167,88.5342431 84.427627,88.6133716 L84.427627,88.6133716 Z M74.6250994,88.9193349 C74.6250994,87.3895183 73.6032346,86.6193349 71.5595051,86.6193349 L71.5595051,85.0895183 L75.3888643,85.0895183 L76.1526293,88.9193349 L74.6250994,88.9193349 Z M75.3888643,61.3246101 L72.3285373,61.3246101 L73.8560672,59.7947936 L75.3888643,59.7947936 L75.3888643,61.3246101 Z M62.973734,55.0681881 C60.3822006,55.5746101 58.933681,56.2709404 58.933681,57.2099312 L59.6974459,57.2099312 L62.6629607,56.6191055 L62.3785241,58.0592431 L60.081962,58.0592431 L56.2526027,58.8241514 L56.2526027,58.0592431 L55.4888378,57.2943349 L55.4888378,56.5241514 L59.3129297,54.2241514 L63.142289,54.2241514 L62.973734,55.0681881 Z M53.1922757,57.2943349 L51.6594786,58.8241514 L51.6594786,58.0592431 L53.1922757,56.5241514 L53.1922757,57.2943349 Z M131.349129,45.8312615 C130.848732,45.9420413 130.300928,46.0686468 129.726787,46.1899771 L129.726787,46.9443349 L128.963023,46.9443349 L128.963023,46.3587844 C128.899814,46.3693349 128.847141,46.3851606 128.783933,46.395711 L126.66646,48.0943349 L126.66646,47.3294266 L125.902696,48.0943349 L125.902696,47.7092431 L124.617464,47.2819495 C124.538453,47.2977752 124.454176,47.3136009 124.375166,47.3347018 L124.369898,47.3294266 L124.364631,47.3347018 C123.885303,47.4349312 123.405974,47.5351606 122.910844,47.6353899 L122.842369,47.7092431 L122.563199,47.7092431 C121.957455,47.8358486 121.341175,47.9624541 120.719629,48.0943349 L120.545806,48.0943349 L119.013009,47.0709404 L119.013009,47.1236927 L117.485479,47.429656 L117.485479,48.3528211 L114.783332,48.0837844 L113.945824,47.6037385 L113.65612,47.8938761 L113.65612,47.9677294 L112.892355,47.8938761 L112.892355,48.6007569 L113.65612,48.7168119 L113.65612,49.5713991 C111.29635,50.0672706 109.047194,50.5525917 107.019266,51.0062615 L106.002669,50.3943349 L102.378736,50.3943349 L102.178577,50.1938761 L102.178577,50.3943349 L99.1129828,50.3943349 L93.7560937,51.1592431 L93.7560937,50.3943349 L91.4595316,50.3943349 L90.6957667,51.1592431 L89.9320018,50.3943349 L88.3992046,50.3943349 L88.3992046,52.6943349 L83.8060804,52.6943349 L83.0423155,53.4592431 L83.0423155,51.9241514 L83.8060804,51.1592431 L83.0423155,51.1592431 L82.2785506,50.3943349 L78.4491913,50.3943349 L76.9163942,51.9241514 L73.0923023,51.1592431 C71.5595051,51.1592431 70.7957402,51.6709404 70.7957402,52.6943349 L70.7957402,53.4592431 L76.1526293,53.4592431 L76.1526293,54.2241514 L72.3285373,54.9943349 L66.9716483,54.9943349 L66.9716483,54.2241514 L70.0319753,53.4592431 C70.0319753,52.3092431 68.7572779,51.5443349 66.202616,51.1592431 C60.081962,51.1592431 57.021635,52.4358486 57.021635,54.9943349 L52.981582,54.3191055 L52.8077596,54.1450229 C52.7234821,54.1766743 52.7024127,54.2241514 52.6181352,54.2558028 L52.4285108,54.2241514 L51.8543703,54.7041972 C50.395316,55.4005275 49.447194,56.2181881 48.9257269,57.1466284 L47.8353867,58.0592431 L47.0716217,58.0592431 L46.3025895,57.2943349 C45.9022713,57.5369954 45.6178347,57.7427294 45.2491206,57.9801147 L45.1543084,57.9801147 L44.9804861,58.1541972 C41.3407512,60.5069495 39.4181706,62.2847018 39.4181706,63.4241514 L39.4181706,64.1890596 L42.4784976,64.1890596 C50.6428811,64.1890596 54.7250729,63.4241514 54.7250729,61.8890596 L55.4888378,61.8890596 L56.2526027,62.6592431 L65.4388511,60.3592431 C68.6308617,58.0750688 72.0651701,56.9672706 75.6680336,56.7298853 L75.3888643,56.7298853 L75.3888643,55.1947936 L76.9163942,53.6597018 L76.9163942,53.4592431 L78.4491913,53.4592431 L78.4491913,54.2241514 L77.48,54.2241514 L78.4491913,55.1947936 L76.3106496,56.6243807 C76.516076,56.6191055 76.7109677,56.5241514 76.9163942,56.5241514 L77.6854264,56.5241514 L77.6854264,59.5943349 L76.9163942,59.5943349 L74.6250994,58.0592431 L73.8560672,58.0592431 C72.8394697,58.1858486 71.8176049,59.4624541 70.7957402,61.8890596 L71.5595051,61.8890596 L72.3285373,62.6592431 L73.0923023,62.6592431 L79.9819885,61.8890596 L80.7457534,61.8890596 L81.5095183,62.6592431 L89.9320018,61.8890596 L92.9923288,61.8890596 C93.7244896,61.8890596 94.1037384,61.3562615 94.3091648,60.5597018 L93.7560937,60.5597018 L93.7560937,59.7947936 L95.2888909,58.2597018 L96.6162616,59.5943349 L100.64578,59.5943349 L102.178577,61.1241514 L98.3492179,60.3592431 L96.8164207,60.3592431 L96.8164207,61.3246101 L97.5854529,61.3246101 L97.6749978,61.8890596 L104.390862,61.8890596 C105.070349,61.6780505 105.860451,61.4881422 106.766434,61.3246101 L107.145683,61.8890596 L110.52205,61.8890596 L107.440654,62.3374541 L107.145683,61.8890596 L104.390862,61.8890596 C103.300521,62.2319495 102.531489,62.6486927 102.041626,63.1181881 L97.9805038,63.7090138 L97.6749978,61.8890596 L96.8164207,61.8890596 L96.8164207,61.3246101 L95.2888909,61.3246101 L94.5198586,62.0947936 L96.0526558,63.6246101 L94.5198586,65.9246101 L96.0526558,68.2246101 L96.0526558,68.9947936 C96.0526558,70.9097018 95.030791,72.9512156 92.9923288,75.1246101 L89.1629695,74.3597018 L89.1629695,75.8895183 L94.5198586,76.6597018 L94.5198586,78.1895183 L90.6957667,78.9544266 L88.3992046,76.6597018 L87.6354397,76.6597018 L87.6354397,78.1895183 C89.1629695,78.1895183 89.9320018,78.9544266 89.9320018,80.4895183 L89.1629695,80.4895183 L89.9320018,82.7895183 L89.9320018,83.5544266 L84.5751127,78.1895183 C84.5751127,79.7246101 83.8060804,80.4895183 82.2785506,80.4895183 C82.2785506,78.9544266 81.7676182,78.1895183 80.7457534,78.1895183 L74.6250994,78.1895183 L74.6250994,79.7246101 L76.1526293,79.7246101 L79.2129563,81.2544266 L79.2129563,82.0246101 L73.8560672,82.7895183 L66.9716483,82.7895183 L63.142289,83.5544266 L63.142289,85.0895183 L67.7354132,85.8544266 L67.7354132,87.3895183 L66.9716483,87.3895183 L66.202616,86.6193349 L65.4388511,86.6193349 L64.6750862,87.3895183 L64.6750862,88.1544266 L65.4388511,88.9193349 L67.7354132,88.1544266 L69.262943,88.1544266 L68.4991781,88.9193349 C68.4991781,90.4544266 69.7738754,91.2193349 72.3285373,91.2193349 L72.3285373,91.9895183 L70.7957402,91.9895183 L70.7957402,93.5193349 L71.5595051,93.5193349 C73.0923023,93.5193349 75.1307645,92.5012156 77.6854264,90.4544266 L77.6854264,91.2193349 C80.1505435,91.2193349 81.8993018,90.9028211 83.0423155,90.3119954 L83.0423155,90.4544266 L86.1026425,91.2193349 L86.1026425,90.4544266 C90.6957667,90.7076376 92.9923288,91.7310321 92.9923288,93.5193349 C95.5417234,93.5193349 96.8164207,92.5012156 96.8164207,90.4544266 L98.3492179,90.4544266 L100.64578,91.9895183 L101.409545,91.9895183 C101.409545,91.2720872 101.8362,90.6970872 102.33133,90.1431881 L114.999293,89.8688761 L105.786708,91.4567202 C106.755899,92.7544266 107.609209,93.4982339 108.299231,93.4982339 L106.002669,96.5631422 L106.002669,97.3333257 L107.535466,97.3333257 L107.535466,98.0982339 L106.002669,98.0982339 L105.238904,97.3333257 L105.238904,98.0982339 L104.469872,98.8631422 L107.535466,101.933326 L108.299231,101.933326 L109.062996,101.163142 L109.062996,101.933326 L111.359558,101.163142 L112.123323,101.163142 L111.359558,101.933326 L112.892355,104.22805 L113.65612,104.22805 L114.419885,103.463142 L113.65612,98.0982339 L113.877349,97.6551147 C115.036164,98.0507569 116.658506,98.5149771 118.57582,99.0266743 L118.249244,99.0688761 L118.249244,100.598693 L123.606133,100.598693 L123.837897,100.371858 C124.016986,100.41406 124.190809,100.461537 124.369898,100.503739 L124.369898,100.598693 L124.585859,100.556491 C126.692797,101.084014 128.799735,101.611537 130.664375,102.096858 L129.726787,104.433784 L129.726787,105.198693 L131.259585,105.198693 L133.988069,103.014748 C135.210093,103.368188 136.137145,103.684702 136.616474,103.927362 L136.616474,103.663601 L134.251436,102.803739 L135.088944,102.133784 C133.045214,102.133784 132.02335,101.622087 132.02335,100.598693 L132.02335,99.8337844 L132.792382,95.9986927 L132.02335,95.2337844 L124.369898,99.0688761 L124.369898,98.2986927 L124.369898,97.5337844 L122.842369,97.5337844 L123.606133,96.7688761 L122.073336,95.2337844 L121.309571,95.2337844 L120.545806,95.9986927 L122.073336,97.5337844 L123.010924,98.4727752 L122.521061,98.5308028 L115.952682,96.1411239 L115.952682,95.9986927 L115.568166,95.9986927 L114.836005,95.7349312 L115.188917,95.0333257 L112.90289,92.7491514 L113.65612,92.9337844 L115.188917,91.4039679 L118.249244,92.1688761 L121.309571,91.4039679 L122.842369,92.9337844 L126.66646,91.4039679 L127.193195,88.2493807 L129.268529,87.4211697 L127.272205,87.7640596 L127.435493,86.8039679 L128.963023,85.2688761 L129.231657,83.7390596 L128.963023,83.7390596 L128.963023,82.9688761 L129.363341,82.9688761 L133.556147,58.9876835 L133.556147,58.5551147 L122.689616,60.127133 L122.842369,59.9741514 C123.753619,59.8633716 124.448909,58.5603899 124.954574,56.2023624 C124.401502,56.0599312 123.79049,55.9227752 123.126805,55.7908945 L122.073336,56.1443349 L121.883712,55.5693349 C121.794167,55.5535092 121.694087,55.5376835 121.604543,55.527133 C121.68882,55.5113073 121.773098,55.5007569 121.857375,55.4902064 L121.309571,53.8443349 L120.545806,53.8443349 C120.545806,54.2927294 120.408856,54.5406651 120.319311,54.8571789 L120.545806,54.7886009 L121.309571,54.7886009 L121.309571,55.479656 C120.946125,55.4216284 120.609015,55.3636009 120.219231,55.3108486 C120.108617,55.5324083 119.929527,55.6484633 119.755705,55.7697936 C120.277172,55.7012156 120.788104,55.6326376 121.304304,55.5640596 L120.545806,56.3236927 L121.309571,57.0886009 L121.309571,58.6236927 L119.782042,58.6236927 L119.782042,59.3886009 L115.952682,58.6236927 L114.419885,58.6236927 L114.419885,59.5943349 L113.65612,59.5943349 L113.65612,59.7947936 L113.455961,59.5943349 L112.892355,59.5943349 L112.892355,59.0298853 L112.48677,58.6236927 L111.359558,58.6236927 L111.359558,59.7947936 L111.322687,59.8317202 L112.892355,60.3592431 L112.892355,61.1347018 L113.65612,61.3246101 L113.65612,61.4353899 L112.892355,61.5461697 L112.892355,61.1347018 L110.595793,60.5597018 L111.322687,59.8317202 L110.595793,59.5943349 L106.766434,60.3592431 L106.766434,58.8241514 L109.062996,58.8241514 L109.062996,58.6236927 L111.359558,58.6236927 L111.359558,58.2597018 C110.485179,58.2597018 109.726681,58.1805734 109.062996,58.0275917 L109.062996,57.3523624 C108.694282,57.4156651 108.383509,57.4684174 108.041131,57.526445 C107.761962,57.3787385 107.398515,57.2890596 107.172019,57.1044266 L101.409545,56.5241514 L101.409545,56.3236927 L101.409545,55.9597018 L101.614971,55.7592431 L101.409545,55.7592431 L101.409545,55.5587844 L101.73612,55.6379128 L101.614971,55.7592431 L102.220716,55.7592431 L104.469872,56.3236927 L106.524136,56.1390596 C106.703226,56.4872248 106.866513,56.8459404 107.172019,57.1044266 L109.062996,57.2943349 L109.062996,57.3523624 C110.232346,57.1624541 111.53338,56.9619954 112.892355,56.7562615 L112.892355,57.0886009 L114.957154,56.4661239 C114.920283,56.4661239 114.878144,56.4661239 114.841273,56.4608486 C114.92555,56.4502982 115.020362,56.4344725 115.109907,56.423922 L119.207901,55.1895183 C118.644295,55.1262156 118.096491,55.0523624 117.485479,54.9943349 L117.485479,54.6092431 L120.635351,53.2587844 L119.013009,53.2587844 L119.602952,52.6679587 L121.309571,52.9475459 L121.309571,52.9686468 L120.635351,53.2587844 L121.309571,53.2587844 L121.309571,53.4592431 L123.606133,53.4592431 L123.606133,53.3220872 L125.023049,53.548922 C125.05992,53.7757569 125.138931,53.9867661 125.138931,54.2241514 L127.677791,54.7938761 C127.914821,54.7675 128.136049,54.7463991 128.362545,54.7200229 L128.204525,54.9099312 L128.963023,55.0787385 L128.963023,54.6567202 C129.637243,54.5881422 130.23772,54.5353899 130.81186,54.4879128 L131.259585,54.5617661 L131.259585,54.4509862 C131.802121,54.4087844 132.26038,54.3876835 132.671233,54.3718578 C132.655431,54.5248394 132.613292,54.6461697 132.581688,54.7780505 L132.945135,54.836078 L133.434998,54.3454817 C133.550879,54.3507569 133.598285,54.3613073 133.693098,54.3665826 L134.035475,54.7041972 L133.413928,54.9099312 L134.246169,55.0470872 L134.261971,54.9363073 L134.319912,54.9943349 L134.319912,55.0576376 L137.380239,55.5587844 C136.590137,54.8519037 135.378648,54.4773624 133.972267,54.261078 L133.556147,53.8443349 L132.792382,53.8443349 C132.792382,53.9603899 132.739708,54.0025917 132.729174,54.1080963 C132.476341,54.0975459 132.297251,54.0236927 132.02335,54.0236927 L132.02335,53.179656 C131.375466,53.0899771 130.690711,53.0002982 129.969085,52.9000688 L128.963023,53.1058028 L128.963023,52.7681881 C128.494229,52.7048853 128.004366,52.6415826 127.51977,52.5782798 L127.435493,52.4886009 L127.435493,51.7236927 L127.630384,51.132867 L124.211878,51.6023624 C124.364631,51.7869954 124.448909,52.0032798 124.559523,52.2037385 C124.132868,52.1509862 123.71148,52.0982339 123.284825,52.0454817 L122.87924,52.4516743 L122.673814,52.3830963 L122.842369,52.3092431 L122.478922,51.9505275 C122.336703,51.9294266 122.194485,51.9136009 122.052267,51.8977752 L121.462324,51.9769037 L121.309571,51.9241514 L121.309571,51.9980046 L120.108617,52.1615367 L120.551074,51.7184174 C118.243977,51.454656 116.052762,51.2172706 114.198657,51.0537385 L117.806787,50.3785092 L120.545806,51.1592431 L120.545806,50.3943349 L121.077808,49.8615367 L122.057534,50.0092431 C122.062802,50.0145183 122.068069,50.0197936 122.073336,50.0197936 L122.073336,50.0145183 L127.714662,50.8849312 L128.199258,49.4236927 L124.733345,49.0755275 L127.93589,48.4794266 L128.963023,48.4794266 L129.726787,48.4794266 L129.726787,48.1418119 L132.02335,47.7092431 L131.101564,48.6376835 C131.659903,48.6851606 132.165568,48.7484633 132.665966,48.8117661 L134.319912,48.4794266 L135.020468,49.1757569 C137.617269,49.7138303 138.913036,50.5051147 138.913036,51.5443349 L138.913036,52.3092431 L136.969386,52.3092431 L138.149271,52.4886009 L137.380239,53.2587844 L137.380239,54.0236927 C137.569863,54.0236927 137.274892,53.9603899 136.627008,53.8548853 L137.380239,54.6092431 L138.913036,54.6092431 L138.913036,53.0741514 C140.956765,53.0741514 141.973363,52.5677294 141.973363,51.5443349 L141.973363,50.7794266 L141.209598,50.0092431 C136.047601,48.3475459 132.781847,46.9601606 131.349129,45.8312615 L131.349129,45.8312615 Z" id="Fill-100" fill="#E6E6E6" mask="url(#mask-4)"></path>
                    <path d="M99.114563,95.0322706 L99.114563,95.7971789 L101.411125,95.0322706 L102.17489,95.0322706 L102.943922,95.7971789 L106.004249,93.4971789 C106.004249,92.6373165 105.435376,92.0570413 104.466185,91.6825 L98.3507981,92.7322706 L99.114563,95.0322706 Z" id="Fill-101" fill="#E6E6E6" mask="url(#mask-4)"></path>
                    <polygon id="Fill-102" fill="#E6E6E6" mask="url(#mask-4)" points="135.086837 85.0889908 129.271689 87.4206422 135.086837 86.4183486"></polygon>
                    <polygon id="Fill-103" fill="#E6E6E6" mask="url(#mask-4)" points="131.260111 34.2969725 131.760509 33.7958257 130.896665 33.9329817"></polygon>
                    <polygon id="Fill-104" fill="#E6E6E6" mask="url(#mask-4)" points="109.064576 21.6490826 111.329534 22.1396789 110.597373 21.6490826"></polygon>
                    <path d="M130.197161,33.0298624 L130.4974,33.3305505 L130.4974,33.4993578 L131.830038,33.7261927 L131.761563,33.7947706 L132.009128,33.757844 L134.611196,34.2062385 L135.085257,34.6810092 L135.854289,34.6810092 C136.254607,34.6810092 136.56538,34.6229817 136.928827,34.6018807 L137.381819,34.6810092 L137.381819,34.5702294 C140.357868,34.3170183 142.196171,33.3622018 142.738708,31.6161009 L142.738708,30.0810092 L141.211178,30.0810092 L140.442146,30.8459174 L140.442146,30.0810092 C139.114775,31.5000459 137.587245,32.3968349 135.885893,32.8294037 L135.854289,32.8241284 L135.854289,31.6161009 L133.241686,32.2649541 L132.788695,32.17 L132.788695,32.3810092 L130.197161,33.0298624 Z" id="Fill-105" fill="#E6E6E6" mask="url(#mask-4)"></path>
                    <polygon id="Fill-106" fill="#E6E6E6" mask="url(#mask-4)" points="102.941289 48.6582569 103.705053 48.6582569 104.063233 48.4208716 102.941289 48.5738532"></polygon>
                    <path d="M99.6634202,49.0301606 L96.8190544,49.4258028 C98.0305435,49.4258028 98.9312594,49.2675459 99.6634202,49.0301606" id="Fill-107" fill="#E6E6E6" mask="url(#mask-4)"></path>
                    <polygon id="Fill-108" fill="#E6E6E6" mask="url(#mask-4)" points="106.768541 48.6582569 107.532306 48.6582569 108.369814 47.8194954 106.768541 48.0463303"></polygon>
                    <polygon id="Fill-109" fill="#E6E6E6" mask="url(#mask-4)" points="130.494766 34.0944037 130.494766 33.9941743 129.878487 34.0944037"></polygon>
                    <path d="M134.321492,44.0972936 L134.321492,44.060367 L134.590126,44.060367 L135.854289,43.8757339 C135.854289,43.9390367 135.917497,43.9970642 135.975438,44.060367 L136.618054,44.060367 L136.618054,44.4138073 C138.008633,44.9307798 141.311258,45.5216055 146.568067,46.1757339 L148.095597,44.6459174 L148.095597,43.8757339 L141.974943,41.5810092 L139.678381,43.1108257 L133.557727,43.1108257 L132.02493,42.8048624 L132.02493,44.4243578 L134.321492,44.0972936 Z" id="Fill-110" fill="#E6E6E6" mask="url(#mask-4)"></path>
                    <path d="M135.975965,44.0587844 L134.585386,44.0587844 L134.322019,44.095711 L134.322019,44.7973165 L131.261692,45.4092431 L131.261692,44.8236927 L132.025456,44.8236927 L132.025456,44.4280505 L130.492659,44.6443349 C130.492659,44.6759862 130.524263,44.7129128 130.529531,44.7445642 L123.792597,45.6782798 C123.724122,45.9631422 123.650379,46.2269037 123.60824,46.5592431 L119.778881,46.5592431 L119.778881,46.2374541 L119.162602,46.3218578 L120.542646,47.7092431 L122.565306,47.7092431 C122.686455,47.682867 122.797069,47.6617661 122.912951,47.6353899 L123.60824,46.9443349 L124.61957,47.2819495 C126.110229,46.970711 127.506075,46.6752982 128.78604,46.395711 L128.965129,46.2532798 L128.965129,46.3587844 C129.228497,46.3007569 129.476062,46.2480046 129.728894,46.1899771 L129.728894,45.6413532 L130.492659,45.0294266 L130.492659,44.8236927 L130.555867,44.8236927 C130.62961,45.1349312 130.88771,45.4672706 131.351236,45.8312615 C132.625934,45.5411239 133.637264,45.2931881 134.322019,45.0980046 L134.322019,45.5938761 L136.618581,45.5938761 L136.618581,44.4122248 C136.292005,44.2908945 136.091846,44.1748394 135.975965,44.0587844" id="Fill-111" fill="#E6E6E6" mask="url(#mask-4)"></path>
                    <path d="M115.110961,56.422867 L114.958208,56.470344 C115.279516,56.491445 115.574487,56.5230963 115.953736,56.5230963 L117.481266,56.5230963 L117.481266,56.1432798 L119.014063,56.1432798 C119.345905,56.1432798 119.530262,55.9322706 119.756758,55.7687385 C118.197624,55.9797477 116.633223,56.2013073 115.110961,56.422867" id="Fill-112" fill="#E6E6E6" mask="url(#mask-4)"></path>
                    <polygon id="Fill-113" fill="#E6E6E6" mask="url(#mask-4)" points="130.494766 33.9968119 130.895084 33.9335092 130.494766 33.5325917"></polygon>
                    <path d="M113.41909,50.983578 L113.403288,50.9572018 L113.076712,50.9572018 C113.192594,50.9677523 113.297941,50.9730275 113.41909,50.983578" id="Fill-114" fill="#E6E6E6" mask="url(#mask-4)"></path>
                    <polygon id="Fill-115" fill="#E6E6E6" mask="url(#mask-4)" points="130.494766 33.4972477 130.452627 33.4919725 130.494766 33.5288991"></polygon>
                    <polygon id="Fill-116" fill="#E6E6E6" mask="url(#mask-4)" points="119.014063 45.5922936 118.429388 45.5922936 119.014063 46.177844"></polygon>
                    <polygon id="Fill-117" fill="#E6E6E6" mask="url(#mask-4)" points="122.840788 40.2263303 122.840788 41.5662385 124.373586 41.2391743 124.373586 40.2263303"></polygon>
                    <path d="M124.013299,40.0538303 L126.320396,40.8240138 L128.200838,40.4230963 L128.200838,39.4366284 C126.957745,39.6265367 125.525027,39.8375459 124.013299,40.0538303" id="Fill-118" fill="#E6E6E6" mask="url(#mask-4)"></path>
                    <polygon id="Fill-119" fill="#E6E6E6" mask="url(#mask-4)" points="118.984566 40.9627523 118.731733 42.2393578 118.900288 42.4081651 119.779935 42.2235321 119.779935 41.7593119"></polygon>
                    <polygon id="Fill-120" fill="#E6E6E6" mask="url(#mask-4)" points="129.155281 42.9198624 128.965656 42.7299541 128.965656 43.1097706"></polygon>
                    <polygon id="Fill-121" fill="#E6E6E6" mask="url(#mask-4)" points="119.014063 46.1773165 119.014063 46.3461239 119.161548 46.3250229"></polygon>
                    <polygon id="Fill-122" fill="#E6E6E6" mask="url(#mask-4)" points="130.494766 83.736422 130.494766 82.9715138 129.367555 82.9715138 129.230604 83.736422"></polygon>
                    <polygon id="Fill-123" fill="#E6E6E6" mask="url(#mask-4)" points="158.046664 80.6683486 159.579461 80.6683486 159.579461 79.9034404 158.046664 79.9034404"></polygon>
                    <polygon id="Fill-124" fill="#E6E6E6" mask="url(#mask-4)" points="151.924956 30.0810092 153.457753 31.6161009 154.221518 31.6161009 154.221518 29.3161009 152.688721 29.3161009"></polygon>
                    <polygon id="Fill-125" fill="#E6E6E6" mask="url(#mask-4)" points="87.6343862 67.4586468 89.1671834 65.923555 89.1671834 65.1586468 87.6343862 63.623555 85.3378241 63.623555 83.805027 65.1586468 86.101589 67.4586468"></polygon>
                    <polygon id="Fill-126" fill="#E6E6E6" mask="url(#mask-4)" points="148.09665 43.8788991 149.629448 43.8788991 149.629448 42.3438073 148.09665 42.3438073"></polygon>
                    <path d="M125.136824,23.1820642 L124.752308,23.1820642 L125.136824,22.7969725 L125.136824,23.1820642 Z M115.750416,26.0676147 L115.950575,25.867156 C115.755684,24.5483486 115.450178,23.5829817 115.049859,22.9446789 L118.34195,23.6568349 L119.01617,24.3320642 L121.45495,24.3320642 L125.247438,25.155 L126.005935,25.0020183 L126.411521,25.4029358 L125.247438,25.155 L119.779935,26.2469725 L119.01617,26.2469725 L118.247137,25.4820642 L118.247137,24.8965138 L116.719608,24.8965138 L116.719608,25.661422 L117.404362,25.661422 C116.872361,25.7669266 116.371963,25.8935321 115.955843,26.0939908 L124.615357,27.2334404 L126.669621,26.9591284 L126.669621,25.661422 L127.717822,26.7164679 L127.022533,26.9116514 L127.812635,26.8061468 L128.781826,27.7820642 L128.966183,27.7820642 L128.966183,27.961422 L129.729948,27.961422 C129.719413,27.8822936 129.687809,27.8611927 129.677274,27.7820642 L129.729948,27.7820642 L129.729948,27.961422 L129.729948,28.167156 L131.257478,28.167156 L131.257478,27.7820642 L137.383399,27.7820642 L130.957239,26.3894037 L132.02651,26.2469725 L132.02651,25.4820642 L129.756285,26.1309174 L129.234817,26.0148624 C129.155807,25.7774771 129.060995,25.5770183 128.966183,25.3818349 L128.966183,24.717156 L125.900589,22.417156 L125.463399,22.4699083 L125.900589,22.0320642 L124.373059,20.4969725 L122.840262,20.4969725 L117.767809,22.6756422 L116.719608,22.417156 L114.902374,22.7811468 C114.549462,22.3169266 114.143876,22.0320642 113.654013,22.0320642 L112.126483,22.0320642 L112.126483,22.3116514 L111.331114,22.1375688 L112.126483,22.670367 L112.126483,23.567156 L111.362719,23.567156 L109.829921,22.0320642 L106.000562,22.7969725 L106.000562,23.567156 L107.533359,25.0969725 L109.829921,25.0969725 L110.593686,24.3320642 C110.593686,24.9334404 112.068543,25.6561468 114.77069,26.4790826 L115.18681,26.0676147 L115.750416,26.0676147 Z" id="Fill-127" fill="#E6E6E6" mask="url(#mask-4)"></path>
                    <path d="M94.3075846,60.5607569 L96.0510756,60.5607569 L96.8201078,59.7958486 L96.6146814,59.5901147 L94.5235457,59.5901147 C94.5235457,60.0226835 94.3865948,60.2495183 94.3075846,60.5607569" id="Fill-128" fill="#E6E6E6" mask="url(#mask-4)"></path>
                    <polygon id="Fill-129" fill="#E6E6E6" mask="url(#mask-4)" points="77.4826337 54.2262615 76.9190278 53.6618119 76.9190278 54.2262615"></polygon>
                </g>
            </g>
        </g>
    </g>
</svg>